<svg width="52" height="52" viewBox="0 0 52 52" fill="none" xmlns="http://www.w3.org/2000/svg">
<path d="M47.9324 6.11343V0.65C47.9324 0.290723 47.6417 0 47.2824 0H17.1717C16.8124 0 16.5217 0.290723 16.5217 0.65V6.11343L13.2768 11.6067C12.7385 12.609 12.4541 13.7236 12.4541 14.8294V15.9263H3.39092C3.07861 15.9263 2.81011 16.1484 2.75234 16.4557L1.80888 21.444C0.800439 21.5178 0 22.3527 0 23.3797V27.2841C0 28.3594 0.874707 29.2341 1.95 29.2341H2.67677L3.21509 51.3659C3.22397 51.7188 3.51216 52 3.86509 52H23.9941C24.3471 52 24.6353 51.7188 24.6441 51.3659L24.7355 47.6112H47.7877C50.1103 47.6112 52 45.7215 52 43.3989V14.8294C52 13.7236 51.7156 12.609 51.1646 11.5832L47.9324 6.11343ZM25.9099 29.2341C26.9852 29.2341 27.8599 28.3594 27.8599 27.2841V24.8224C30.3097 26.9968 30.5634 30.5997 30.5873 31.2299C30.586 31.282 30.5855 31.3195 30.5855 31.3327V32.2708C28.6052 32.1364 26.7061 31.3893 25.1605 30.1378L25.1825 29.2341H25.9099ZM31.8855 31.3578C31.8859 31.349 31.8906 31.3416 31.8906 31.3327C31.8906 31.3179 31.8903 31.2812 31.8889 31.2262C31.9134 30.5838 32.162 26.9334 34.6544 24.7736C35.9252 23.6717 37.5965 23.1175 39.6373 23.1175C40.0423 23.1175 40.4625 23.1391 40.8967 23.1829C40.6117 28.042 36.7307 31.9497 31.8855 32.2715V31.3578ZM25.122 31.7211C26.7427 32.8098 28.6304 33.4564 30.5855 33.5734V34.702C30.5855 35.0613 30.8763 35.352 31.2355 35.352C31.5948 35.352 31.8855 35.0613 31.8855 34.702V33.574C37.6372 33.2376 42.2132 28.4483 42.2132 22.6091C42.2132 22.2854 41.9745 22.0105 41.654 21.9654C38.3697 21.504 35.7259 22.1197 33.7943 23.798C32.4686 24.9503 31.6952 26.4195 31.2386 27.7559C30.6942 26.1588 29.688 24.3794 27.8393 23.1758C27.7406 22.2434 26.9893 21.5111 26.048 21.4437L25.2432 17.3437C27.3248 16.1885 29.6764 15.5727 32.0722 15.5727C35.6916 15.5727 39.1339 16.9444 41.7663 19.4353C41.8869 19.5495 42.0469 19.613 42.2132 19.613H50.7V35.3469H42.2132C42.0469 35.3469 41.8869 35.4104 41.7663 35.5247C39.1333 38.0155 35.691 39.3872 32.0722 39.3872C29.5761 39.3872 27.1283 38.7232 24.9821 37.4718L25.122 31.7211ZM13.7541 14.8294C13.7541 13.9242 13.9788 13.047 14.4092 12.2446L17.7315 6.62187C17.7906 6.52158 17.8217 6.40732 17.8217 6.29116V1.3H46.6324V6.29116C46.6324 6.40732 46.6635 6.52158 46.7226 6.62187L50.0322 12.2211C50.4753 13.047 50.7 13.9242 50.7 14.8294V18.313H42.469C39.6195 15.7054 35.9379 14.2727 32.0722 14.2727C29.5962 14.2727 27.1623 14.8741 24.981 16.008L24.6321 14.2308C24.5724 13.9255 24.3045 13.7059 23.9941 13.7059H20.3474C20.1379 13.7059 19.9412 13.8068 19.8193 13.9769L18.4215 15.9263H13.7541V14.8294ZM3.9292 17.2263H18.7554C18.9649 17.2263 19.1617 17.1253 19.2835 16.9552L20.6813 15.0059H23.459L24.7203 21.4297H3.13435L3.9292 17.2263ZM1.3 27.2841V23.3797C1.3 23.021 1.59136 22.7297 1.95 22.7297H25.9099C26.2685 22.7297 26.5599 23.021 26.5599 23.3797V27.2841C26.5599 27.6428 26.2685 27.9341 25.9099 27.9341H1.95C1.59136 27.9341 1.3 27.6428 1.3 27.2841ZM4.49922 50.7L3.97752 29.2341H23.8817L23.36 50.7H4.49922ZM47.7877 46.3112H24.7671L24.9465 38.9345C27.1381 40.0801 29.5829 40.6872 32.0722 40.6872C35.9373 40.6872 39.6189 39.2545 42.469 36.6469H50.7V43.3989C50.7 45.0049 49.3937 46.3112 47.7877 46.3112Z" fill="#555555"/>
<path d="M20.2309 6.94819H22.2089C22.5681 6.94819 22.8589 6.65747 22.8589 6.29819C22.8589 5.93892 22.5681 5.64819 22.2089 5.64819H20.2309C19.8717 5.64819 19.5809 5.93892 19.5809 6.29819C19.5809 6.65747 19.8717 6.94819 20.2309 6.94819Z" fill="#555555"/>
<path d="M25.734 6.94819H27.7119C28.0712 6.94819 28.3619 6.65747 28.3619 6.29819C28.3619 5.93892 28.0712 5.64819 27.7119 5.64819H25.734C25.3747 5.64819 25.084 5.93892 25.084 6.29819C25.084 6.65747 25.3747 6.94819 25.734 6.94819Z" fill="#555555"/>
<path d="M31.2378 6.94819H33.2157C33.575 6.94819 33.8657 6.65747 33.8657 6.29819C33.8657 5.93892 33.575 5.64819 33.2157 5.64819H31.2378C30.8785 5.64819 30.5878 5.93892 30.5878 6.29819C30.5878 6.65747 30.8785 6.94819 31.2378 6.94819Z" fill="#555555"/>
<path d="M36.7418 6.94819H38.7197C39.079 6.94819 39.3697 6.65747 39.3697 6.29819C39.3697 5.93892 39.079 5.64819 38.7197 5.64819H36.7418C36.3825 5.64819 36.0918 5.93892 36.0918 6.29819C36.0918 6.65747 36.3825 6.94819 36.7418 6.94819Z" fill="#555555"/>
<path d="M42.2456 6.94819H44.2235C44.5828 6.94819 44.8735 6.65747 44.8735 6.29819C44.8735 5.93892 44.5828 5.64819 44.2235 5.64819H42.2456C41.8863 5.64819 41.5956 5.93892 41.5956 6.29819C41.5956 6.65747 41.8863 6.94819 42.2456 6.94819Z" fill="#555555"/>
</svg>
