<svg width="20" height="20" viewBox="0 0 20 20" fill="none" xmlns="http://www.w3.org/2000/svg">
<path d="M18.4355 2.35132V0.25C18.4355 0.111816 18.3237 0 18.1855 0H6.60449C6.46631 0 6.35449 0.111816 6.35449 0.25V2.35132L5.10645 4.46411C4.89941 4.84961 4.79004 5.27832 4.79004 5.70361V6.12549H1.3042C1.18408 6.12549 1.08081 6.21094 1.05859 6.3291L0.695724 8.24768C0.307861 8.27606 0 8.5972 0 8.99219V10.4939C0 10.9075 0.336426 11.2439 0.75 11.2439H1.02953L1.23657 19.7561C1.23999 19.8918 1.35083 20 1.48657 20H9.22852C9.36426 20 9.4751 19.8918 9.47852 19.7561L9.51364 18.312H18.3799C19.2732 18.312 20 17.5852 20 16.6919V5.70361C20 5.27832 19.8906 4.84961 19.6787 4.45508L18.4355 2.35132ZM9.96533 11.2439C10.3789 11.2439 10.7153 10.9075 10.7153 10.4939V9.54706C11.6576 10.3834 11.7551 11.7691 11.7644 12.0115C11.7639 12.0316 11.7637 12.046 11.7637 12.051V12.4119C11.002 12.3602 10.2716 12.0728 9.67711 11.5915L9.68556 11.2439H9.96533ZM12.2637 12.0607C12.2638 12.0573 12.2656 12.0544 12.2656 12.051C12.2656 12.0453 12.2655 12.0312 12.265 12.0101C12.2744 11.763 12.37 10.359 13.3286 9.52832C13.8174 9.10449 14.4602 8.89136 15.2451 8.89136C15.4009 8.89136 15.5625 8.89966 15.7295 8.9165C15.6199 10.7854 14.1272 12.2883 12.2637 12.4121V12.0607ZM9.66229 12.2004C10.2856 12.6191 11.0117 12.8679 11.7637 12.9128V13.3469C11.7637 13.4851 11.8755 13.5969 12.0137 13.5969C12.1519 13.5969 12.2637 13.4851 12.2637 13.3469V12.9131C14.4758 12.7837 16.2358 10.9417 16.2358 8.6958C16.2358 8.57129 16.144 8.46558 16.0208 8.44824C14.7576 8.27075 13.7407 8.50757 12.9978 9.15308C12.4879 9.59625 12.1905 10.1613 12.0149 10.6754C11.8055 10.0611 11.4185 9.37671 10.7074 8.91376C10.6694 8.55515 10.3805 8.2735 10.0185 8.24756L9.70891 6.67065C10.5096 6.22635 11.414 5.9895 12.3354 5.9895C13.7275 5.9895 15.0515 6.51709 16.064 7.4751C16.1104 7.51904 16.1719 7.54346 16.2358 7.54346H19.5V13.595H16.2358C16.1719 13.595 16.1104 13.6194 16.064 13.6633C15.0513 14.6213 13.7273 15.1489 12.3354 15.1489C11.3754 15.1489 10.434 14.8936 9.60849 14.4122L9.66229 12.2004ZM5.29004 5.70361C5.29004 5.35547 5.37646 5.01807 5.54199 4.70947L6.81982 2.54688C6.84253 2.5083 6.85449 2.46436 6.85449 2.41968V0.5H17.9355V2.41968C17.9355 2.46436 17.9475 2.5083 17.9702 2.54688L19.2432 4.70044C19.4136 5.01807 19.5 5.35547 19.5 5.70361V7.04346H16.3342C15.2383 6.04053 13.8223 5.4895 12.3354 5.4895C11.3832 5.4895 10.4471 5.72083 9.60806 6.15692L9.47388 5.47339C9.45093 5.35596 9.3479 5.27148 9.22852 5.27148H7.82593C7.74536 5.27148 7.66968 5.3103 7.6228 5.37573L7.08521 6.12549H5.29004V5.70361ZM1.51123 6.62549H7.21362C7.29419 6.62549 7.36987 6.58667 7.41675 6.52124L7.95435 5.77148H9.02271L9.50781 8.24219H1.20552L1.51123 6.62549ZM0.5 10.4939V8.99219C0.5 8.85425 0.612061 8.74219 0.75 8.74219H9.96533C10.1033 8.74219 10.2153 8.85425 10.2153 8.99219V10.4939C10.2153 10.6318 10.1033 10.7439 9.96533 10.7439H0.75C0.612061 10.7439 0.5 10.6318 0.5 10.4939ZM1.73047 19.5L1.52982 11.2439H9.18527L8.98462 19.5H1.73047ZM18.3799 17.812H9.5258L9.59482 14.9748C10.4377 15.4154 11.378 15.6489 12.3354 15.6489C13.822 15.6489 15.238 15.0979 16.3342 14.095H19.5V16.6919C19.5 17.3096 18.9976 17.812 18.3799 17.812Z" fill="#222222"/>
<path d="M7.78113 2.67238H8.54187C8.68005 2.67238 8.79187 2.56057 8.79187 2.42238C8.79187 2.2842 8.68005 2.17238 8.54187 2.17238H7.78113C7.64294 2.17238 7.53113 2.2842 7.53113 2.42238C7.53113 2.56057 7.64294 2.67238 7.78113 2.67238Z" fill="#222222"/>
<path d="M9.89771 2.67238H10.6584C10.7966 2.67238 10.9084 2.56057 10.9084 2.42238C10.9084 2.2842 10.7966 2.17238 10.6584 2.17238H9.89771C9.75952 2.17238 9.64771 2.2842 9.64771 2.42238C9.64771 2.56057 9.75952 2.67238 9.89771 2.67238Z" fill="#222222"/>
<path d="M12.0145 2.67238H12.7753C12.9135 2.67238 13.0253 2.56057 13.0253 2.42238C13.0253 2.2842 12.9135 2.17238 12.7753 2.17238H12.0145C11.8763 2.17238 11.7645 2.2842 11.7645 2.42238C11.7645 2.56057 11.8763 2.67238 12.0145 2.67238Z" fill="#222222"/>
<path d="M14.1315 2.67238H14.8922C15.0304 2.67238 15.1422 2.56057 15.1422 2.42238C15.1422 2.2842 15.0304 2.17238 14.8922 2.17238H14.1315C13.9933 2.17238 13.8815 2.2842 13.8815 2.42238C13.8815 2.56057 13.9933 2.67238 14.1315 2.67238Z" fill="#222222"/>
<path d="M16.2483 2.67238H17.009C17.1472 2.67238 17.259 2.56057 17.259 2.42238C17.259 2.2842 17.1472 2.17238 17.009 2.17238H16.2483C16.1101 2.17238 15.9983 2.2842 15.9983 2.42238C15.9983 2.56057 16.1101 2.67238 16.2483 2.67238Z" fill="#222222"/>
</svg>
