<svg width="52" height="52" viewBox="0 0 52 52" fill="none" xmlns="http://www.w3.org/2000/svg">
<path d="M24.0385 36.5748H22.1749C21.3692 36.5748 20.7136 37.2364 20.7136 38.0495C20.7136 38.8626 21.3692 39.5241 22.1749 39.5241H24.0385C24.8442 39.5241 25.4998 38.8625 25.4998 38.0495C25.4997 37.2364 24.8442 36.5748 24.0385 36.5748ZM24.0385 38.6912H22.1749C21.8243 38.6912 21.539 38.4033 21.539 38.0496C21.539 37.6958 21.8243 37.4079 22.1749 37.4079H24.0385C24.3891 37.4079 24.6744 37.6958 24.6744 38.0496C24.6743 38.4033 24.3891 38.6912 24.0385 38.6912Z" fill="#555555"/>
<path d="M24.0385 32.267H22.1749C21.3692 32.267 20.7136 32.9286 20.7136 33.7417C20.7136 34.5548 21.3692 35.2163 22.1749 35.2163H24.0385C24.8442 35.2163 25.4998 34.5547 25.4998 33.7416C25.4997 32.9286 24.8442 32.267 24.0385 32.267ZM24.0385 34.3834H22.1749C21.8243 34.3834 21.539 34.0955 21.539 33.7417C21.539 33.388 21.8243 33.1001 22.1749 33.1001H24.0385C24.3891 33.1001 24.6744 33.388 24.6744 33.7418C24.6743 34.0955 24.3891 34.3834 24.0385 34.3834Z" fill="#555555"/>
<path d="M11.8692 36.5748C11.0635 36.5748 10.408 37.2364 10.408 38.0495V39.9303C10.408 40.7434 11.0635 41.4049 11.8692 41.4049C12.675 41.4049 13.3305 40.7433 13.3305 39.9303V38.0496C13.3305 37.2364 12.6749 36.5748 11.8692 36.5748ZM12.5051 39.9303C12.5051 40.284 12.2198 40.5719 11.8692 40.5719C11.5186 40.5719 11.2334 40.284 11.2334 39.9303V38.0496C11.2334 37.6958 11.5186 37.4079 11.8692 37.4079C12.2198 37.4079 12.5051 37.6958 12.5051 38.0496V39.9303Z" fill="#555555"/>
<path d="M18.173 35.0434C18.173 34.2303 17.5174 33.5688 16.7117 33.5688H14.8481C14.0424 33.5688 13.3868 34.2304 13.3868 35.0434C13.3868 35.8566 14.0424 36.5181 14.8481 36.5181H16.7117C17.5174 36.5181 18.173 35.8566 18.173 35.0434ZM14.2123 35.0434C14.2123 34.6897 14.4976 34.4018 14.8482 34.4018H16.7118C17.0624 34.4018 17.3477 34.6897 17.3477 35.0434C17.3477 35.3973 17.0624 35.6852 16.7118 35.6852H14.8482C14.4976 35.6852 14.2123 35.3974 14.2123 35.0434Z" fill="#555555"/>
<path d="M11.8692 28.6823C11.0635 28.6823 10.408 29.3438 10.408 30.1569V32.0377C10.408 32.8509 11.0635 33.5124 11.8692 33.5124C12.675 33.5124 13.3305 32.8508 13.3305 32.0377V30.1569C13.3305 29.3437 12.6749 28.6823 11.8692 28.6823ZM12.5051 32.0376C12.5051 32.3914 12.2198 32.6793 11.8692 32.6793C11.5186 32.6793 11.2334 32.3914 11.2334 32.0376V30.1568C11.2334 29.803 11.5186 29.5151 11.8692 29.5151C12.2198 29.5151 12.5051 29.803 12.5051 30.1568V32.0376Z" fill="#555555"/>
<path d="M8.89081 33.5688H7.02717C6.22138 33.5688 5.56592 34.2304 5.56592 35.0434C5.56592 35.8566 6.22149 36.5181 7.02717 36.5181H8.89081C9.69649 36.5181 10.3521 35.8565 10.3521 35.0434C10.352 34.2304 9.69649 33.5688 8.89081 33.5688ZM8.89081 35.6852H7.02717C6.67659 35.6852 6.39131 35.3973 6.39131 35.0434C6.39131 34.6897 6.67659 34.4018 7.02717 34.4018H8.89081C9.24139 34.4018 9.52667 34.6897 9.52667 35.0434C9.52656 35.3974 9.24139 35.6852 8.89081 35.6852Z" fill="#555555"/>
<path d="M27.8616 38.9153C26.5852 38.9153 25.5469 39.9632 25.5469 41.2514C25.5469 42.5396 26.5852 43.5875 27.8616 43.5875C29.138 43.5875 30.1763 42.5396 30.1763 41.2514C30.1763 39.9632 29.138 38.9153 27.8616 38.9153ZM27.8616 42.7544C27.0404 42.7544 26.3723 42.0801 26.3723 41.2513C26.3723 40.4225 27.0404 39.7482 27.8616 39.7482C28.6827 39.7482 29.3509 40.4225 29.3509 41.2513C29.3509 42.0801 28.6829 42.7544 27.8616 42.7544Z" fill="#555555"/>
<path d="M18.3517 38.9153C17.0753 38.9153 16.037 39.9632 16.037 41.2514C16.037 42.5396 17.0753 43.5875 18.3517 43.5875C19.6281 43.5875 20.6664 42.5396 20.6664 41.2514C20.6664 39.9632 19.628 38.9153 18.3517 38.9153ZM18.3517 42.7544C17.5305 42.7544 16.8624 42.0801 16.8624 41.2513C16.8624 40.4225 17.5305 39.7482 18.3517 39.7482C19.1729 39.7482 19.841 40.4225 19.841 41.2513C19.841 42.0801 19.1729 42.7544 18.3517 42.7544Z" fill="#555555"/>
<path d="M34.3439 31.8184C32.5817 31.8184 31.1479 33.2653 31.1479 35.0437C31.1479 36.8221 32.5817 38.269 34.3439 38.269C36.1061 38.269 37.5398 36.8221 37.5398 35.0437C37.5398 33.2653 36.1061 31.8184 34.3439 31.8184ZM34.3439 37.4359C33.0368 37.4359 31.9733 36.3627 31.9733 35.0436C31.9733 33.7244 33.0368 32.6512 34.3439 32.6512C35.651 32.6512 36.7144 33.7244 36.7144 35.0436C36.7144 36.3627 35.651 37.4359 34.3439 37.4359Z" fill="#555555"/>
<path d="M34.3437 29.7588C31.4561 29.7588 29.1068 32.1297 29.1068 35.0438C29.1068 37.958 31.4561 40.3289 34.3437 40.3289C37.2314 40.3289 39.5805 37.958 39.5805 35.0438C39.5805 32.1296 37.2314 29.7588 34.3437 29.7588ZM34.3437 39.4958C31.9112 39.4958 29.9322 37.4986 29.9322 35.0437C29.9322 32.5889 31.9112 30.5917 34.3437 30.5917C36.7763 30.5917 38.7551 32.5889 38.7551 35.0437C38.7551 37.4987 36.7763 39.4958 34.3437 39.4958Z" fill="#555555"/>
<path d="M51.9828 28.738L43.5908 0.297713C43.5587 0.188904 43.4839 0.0980049 43.384 0.0461515C43.2839 -0.00580597 43.167 -0.0143441 43.0608 0.0228279L26.7234 5.70816C26.5144 5.78084 26.3992 6.00689 26.4624 6.22076L26.665 6.90756C24.2438 7.39059 21.9633 8.30802 19.8761 9.63934C14.9739 6.51241 9.06858 5.71483 2.31883 7.26897C2.13105 7.31218 1.99796 7.48065 1.99796 7.67495V37.3379C1.21838 40.0481 0.525872 43.7854 0.0640653 46.5743C-0.135576 47.7802 0.134946 48.997 0.825696 50.0005C1.51676 51.0045 2.55231 51.6844 3.74181 51.9152C5.29798 52.2175 6.87995 51.7004 7.97256 50.5324C9.72136 48.663 13.1518 45.5269 16.4785 45.5269H29.7347C33.0614 45.5269 36.4919 48.663 38.2407 50.5324C39.1279 51.4808 40.3372 52.0001 41.5941 52C41.8851 52 42.1788 51.9721 42.4715 51.9153C43.6609 51.6845 44.6965 51.0046 45.3875 50.0006C46.0783 48.997 46.3488 47.7803 46.1491 46.5745C45.637 43.4808 44.8408 39.2198 43.957 36.4889C43.5403 35.2011 42.9729 33.8768 42.3131 32.6241C43.2157 32.9374 44.2007 33.1003 45.2183 33.1003C48.4883 33.1003 51.3342 31.3622 51.9853 28.9673C52.0057 28.8919 52.0049 28.8127 51.9828 28.738ZM20.2883 10.3635C22.3191 9.06312 24.5411 8.17151 26.9019 7.71035L28.062 11.6418C26.0741 11.9358 24.1993 12.6529 22.4843 13.7769C22.2931 13.9021 22.2389 14.1602 22.363 14.353C22.442 14.4759 22.5744 14.5426 22.7094 14.5426C22.7865 14.5426 22.8644 14.5209 22.9338 14.4753C24.5822 13.395 26.387 12.7148 28.3004 12.4497L29.2914 15.8082C26.8358 15.9583 24.5475 16.7174 22.4842 18.0699C22.293 18.1951 22.2387 18.4532 22.3629 18.646C22.4419 18.7689 22.5743 18.8356 22.7093 18.8356C22.7864 18.8356 22.8643 18.8139 22.9337 18.7683C24.9292 17.4603 27.1491 16.7426 29.5339 16.63L30.7031 20.5928C30.3365 20.5485 29.9641 20.5262 29.5901 20.5262C25.7814 20.5262 22.6829 22.8498 22.6829 25.7059C22.6829 26.494 22.9158 27.2583 23.3619 27.9544H20.2881V10.3635H20.2883ZM2.82325 8.00887C9.22943 6.60081 14.8245 7.39371 19.463 10.3633V27.9548H18.5572C18.0532 27.3197 16.1445 25.2898 12.3334 25.2898C10.2832 25.2898 8.14455 26.6172 6.14855 29.1282C4.86795 30.7393 3.67856 32.8302 2.82325 34.9383V8.00887ZM43.1725 36.7474C44.0404 39.4292 44.8275 43.6462 45.335 46.7116C45.6768 48.7759 44.3505 50.7023 42.3156 51.0973C41.0377 51.3452 39.7386 50.9203 38.8409 49.9604C36.5933 47.5578 33.1889 44.6938 29.7347 44.6938H16.4785C13.0243 44.6938 9.61984 47.5578 7.3723 49.9604C6.47448 50.9202 5.17521 51.3452 3.8976 51.0973C1.8626 50.7023 0.536293 48.7759 0.878109 46.7116C1.38562 43.6462 2.17284 39.4291 3.04074 36.7474C3.85355 34.2357 5.25599 31.5825 6.79236 29.6496C8.0712 28.0407 10.0706 26.1229 12.3334 26.1229C15.0217 26.1229 16.643 27.2188 17.4293 27.9549H16.6937C16.4657 27.9549 16.281 28.1414 16.281 28.3714C16.281 28.6014 16.4657 28.7879 16.6937 28.7879H29.5195C29.7474 28.7879 29.9322 28.6014 29.9322 28.3714C29.9322 28.1414 29.7474 27.9549 29.5195 27.9549H28.7839C29.5702 27.2188 31.1915 26.1229 33.8798 26.1229C36.1426 26.1229 38.142 28.0407 39.4208 29.6496C40.9572 31.5824 42.3597 34.2358 43.1725 36.7474ZM35.0644 16.4677C34.459 16.3033 33.8558 16.1682 33.2677 16.0628L32.2013 12.4486C33.0604 12.5571 33.9486 12.7342 34.85 12.979C34.8859 12.9888 34.9219 12.9935 34.9575 12.9935C35.1396 12.9935 35.3063 12.8709 35.3558 12.685C35.415 12.463 35.2846 12.2344 35.0644 12.1747C34.0008 11.8859 32.9528 11.6871 31.9452 11.5807L31.7092 10.781L36.9288 8.96472V26.2293C36.6675 26.0704 36.4059 25.9314 36.1443 25.8124L33.5326 16.9609C33.9666 17.0486 34.4075 17.1522 34.8499 17.2723C34.8858 17.2821 34.9219 17.2868 34.9574 17.2868C35.1395 17.2868 35.3062 17.1642 35.3557 16.9784C35.415 16.7561 35.2846 16.5274 35.0644 16.4677ZM37.7543 26.7975V8.67734L41.7516 7.28626L46.3312 22.8072C45.9647 22.7629 45.5923 22.7405 45.2184 22.7405C41.6885 22.7405 38.7705 24.7369 38.362 27.3027C38.1601 27.1226 37.9574 26.9541 37.7543 26.7975ZM45.2183 32.2671C43.921 32.2671 42.6873 31.9776 41.6423 31.4307C41.1456 30.5997 40.6138 29.8192 40.0646 29.1282C39.7594 28.7442 39.4508 28.3882 39.1397 28.06C39.1376 28.0133 39.1365 27.9667 39.1365 27.9203C39.1365 25.5234 41.8648 23.5735 45.2183 23.5735C45.7665 23.5735 46.3101 23.6261 46.834 23.7297C46.9757 23.7575 47.1218 23.7088 47.2188 23.601C47.3159 23.4931 47.3501 23.3419 47.3089 23.2021L42.4197 6.63195C42.3876 6.52314 42.3128 6.43224 42.2128 6.38038C42.1128 6.32843 41.996 6.31989 41.8897 6.35706L31.0663 10.1235C30.8574 10.1962 30.7423 10.4222 30.8054 10.6361L35.1808 25.4648C34.7447 25.3491 34.3103 25.2898 33.8799 25.2898C30.0687 25.2898 28.16 27.3197 27.656 27.9548H24.3912C23.8131 27.2761 23.5085 26.5021 23.5085 25.7063C23.5085 23.3095 26.2367 21.3596 29.5903 21.3596C30.1386 21.3596 30.6822 21.4121 31.2062 21.5157C31.348 21.5435 31.494 21.4948 31.5911 21.387C31.6882 21.2792 31.7223 21.1279 31.6811 20.9881L27.3664 6.36549L42.9228 0.952024L51.157 28.8579C50.543 30.8402 48.0706 32.2671 45.2183 32.2671Z" fill="#555555"/>
<path d="M4.90157 12.9787C9.42121 11.7514 13.4302 12.2551 16.8177 14.4754C16.8871 14.521 16.965 14.5426 17.0421 14.5426C17.1772 14.5426 17.3095 14.4758 17.3885 14.353C17.5126 14.1601 17.4584 13.9022 17.2672 13.7769C13.6749 11.4224 9.44226 10.8829 4.68707 12.1744C4.467 12.2341 4.33659 12.4628 4.3957 12.6848C4.45482 12.9067 4.68139 13.0385 4.90157 12.9787Z" fill="#555555"/>
<path d="M4.90146 17.272C9.42111 16.0448 13.4301 16.5485 16.8177 18.7687C16.8871 18.8143 16.965 18.836 17.0421 18.836C17.1772 18.836 17.3095 18.7691 17.3885 18.6464C17.5126 18.4534 17.4584 18.1955 17.2672 18.0702C13.6749 15.7157 9.44226 15.1762 4.68707 16.4678C4.467 16.5274 4.33659 16.7561 4.3957 16.9781C4.45482 17.2001 4.68129 17.3317 4.90146 17.272Z" fill="#555555"/>
<path d="M16.8177 23.0619C16.8871 23.1075 16.965 23.1292 17.0421 23.1292C17.1772 23.1292 17.3095 23.0623 17.3885 22.9396C17.5126 22.7466 17.4584 22.4887 17.2672 22.3634C13.6749 20.0089 9.44226 19.4694 4.68707 20.761C4.467 20.8207 4.33659 21.0493 4.3957 21.2713C4.45482 21.4933 4.68129 21.6249 4.90146 21.5652C9.42121 20.338 13.4302 20.8417 16.8177 23.0619Z" fill="#555555"/>
</svg>
