<svg width="20" height="20" viewBox="0 0 20 20" fill="none" xmlns="http://www.w3.org/2000/svg">
<path d="M9.2456 14.0673H8.52882C8.21894 14.0673 7.9668 14.3218 7.9668 14.6345C7.9668 14.9472 8.21894 15.2016 8.52882 15.2016H9.2456C9.55548 15.2016 9.80762 14.9472 9.80762 14.6345C9.80758 14.3218 9.55548 14.0673 9.2456 14.0673ZM9.2456 14.8813H8.52882C8.39398 14.8813 8.28426 14.7706 8.28426 14.6345C8.28426 14.4984 8.39398 14.3877 8.52882 14.3877H9.2456C9.38044 14.3877 9.49016 14.4984 9.49016 14.6345C9.49012 14.7706 9.38044 14.8813 9.2456 14.8813Z" fill="black"/>
<path d="M9.2456 12.4104H8.52882C8.21894 12.4104 7.9668 12.6649 7.9668 12.9776C7.9668 13.2903 8.21894 13.5448 8.52882 13.5448H9.2456C9.55548 13.5448 9.80762 13.2903 9.80762 12.9776C9.80758 12.6649 9.55548 12.4104 9.2456 12.4104ZM9.2456 13.2244H8.52882C8.39398 13.2244 8.28426 13.1137 8.28426 12.9776C8.28426 12.8416 8.39398 12.7308 8.52882 12.7308H9.2456C9.38044 12.7308 9.49016 12.8416 9.49016 12.9776C9.49012 13.1137 9.38044 13.2244 9.2456 13.2244Z" fill="black"/>
<path d="M4.56507 14.0673C4.25519 14.0673 4.00305 14.3218 4.00305 14.6345V15.3579C4.00305 15.6706 4.25519 15.925 4.56507 15.925C4.87499 15.925 5.12709 15.6705 5.12709 15.3579V14.6345C5.12709 14.3218 4.87495 14.0673 4.56507 14.0673ZM4.80964 15.3579C4.80964 15.4939 4.69991 15.6046 4.56507 15.6046C4.43023 15.6046 4.32051 15.4939 4.32051 15.3579V14.6345C4.32051 14.4984 4.43023 14.3877 4.56507 14.3877C4.69991 14.3877 4.80964 14.4984 4.80964 14.6345V15.3579Z" fill="black"/>
<path d="M6.98963 13.4783C6.98963 13.1656 6.73749 12.9111 6.42761 12.9111H5.71082C5.40095 12.9111 5.1488 13.1656 5.1488 13.4783C5.1488 13.7911 5.40095 14.0455 5.71082 14.0455H6.42761C6.73749 14.0455 6.98963 13.7911 6.98963 13.4783ZM5.4663 13.4783C5.4663 13.3423 5.57602 13.2315 5.71086 13.2315H6.42765C6.56249 13.2315 6.67221 13.3423 6.67221 13.4783C6.67221 13.6144 6.56249 13.7251 6.42765 13.7251H5.71086C5.57602 13.7251 5.4663 13.6144 5.4663 13.4783Z" fill="black"/>
<path d="M4.56507 11.0317C4.25519 11.0317 4.00305 11.2861 4.00305 11.5989V12.3222C4.00305 12.635 4.25519 12.8894 4.56507 12.8894C4.87499 12.8894 5.12709 12.635 5.12709 12.3222V11.5989C5.12709 11.2861 4.87495 11.0317 4.56507 11.0317ZM4.80964 12.3222C4.80964 12.4583 4.69991 12.569 4.56507 12.569C4.43023 12.569 4.32051 12.4583 4.32051 12.3222V11.5988C4.32051 11.4627 4.43023 11.352 4.56507 11.352C4.69991 11.352 4.80964 11.4627 4.80964 11.5988V12.3222Z" fill="black"/>
<path d="M3.41955 12.9111H2.70277C2.39285 12.9111 2.14075 13.1656 2.14075 13.4783C2.14075 13.7911 2.39289 14.0455 2.70277 14.0455H3.41955C3.72943 14.0455 3.98157 13.791 3.98157 13.4783C3.98153 13.1656 3.72943 12.9111 3.41955 12.9111ZM3.41955 13.7251H2.70277C2.56793 13.7251 2.45821 13.6144 2.45821 13.4783C2.45821 13.3423 2.56793 13.2315 2.70277 13.2315H3.41955C3.55439 13.2315 3.66411 13.3423 3.66411 13.4783C3.66407 13.6144 3.55439 13.7251 3.41955 13.7251Z" fill="black"/>
<path d="M10.716 14.9674C10.225 14.9674 9.82568 15.3704 9.82568 15.8659C9.82568 16.3614 10.225 16.7644 10.716 16.7644C11.2069 16.7644 11.6062 16.3614 11.6062 15.8659C11.6062 15.3704 11.2069 14.9674 10.716 14.9674ZM10.716 16.444C10.4001 16.444 10.1431 16.1846 10.1431 15.8659C10.1431 15.5471 10.4001 15.2877 10.716 15.2877C11.0318 15.2877 11.2888 15.5471 11.2888 15.8659C11.2888 16.1846 11.0318 16.444 10.716 16.444Z" fill="black"/>
<path d="M7.05836 14.9674C6.56745 14.9674 6.16809 15.3704 6.16809 15.8659C6.16809 16.3614 6.56745 16.7644 7.05836 16.7644C7.54927 16.7644 7.94864 16.3614 7.94864 15.8659C7.94864 15.3704 7.54923 14.9674 7.05836 14.9674ZM7.05836 16.444C6.74253 16.444 6.48555 16.1846 6.48555 15.8659C6.48555 15.5471 6.74253 15.2877 7.05836 15.2877C7.3742 15.2877 7.63118 15.5471 7.63118 15.8659C7.63118 16.1846 7.3742 16.444 7.05836 16.444Z" fill="black"/>
<path d="M13.2092 12.2379C12.5314 12.2379 11.98 12.7944 11.98 13.4784C11.98 14.1624 12.5314 14.7189 13.2092 14.7189C13.887 14.7189 14.4384 14.1624 14.4384 13.4784C14.4384 12.7944 13.887 12.2379 13.2092 12.2379ZM13.2092 14.3985C12.7064 14.3985 12.2974 13.9857 12.2974 13.4783C12.2974 12.971 12.7064 12.5582 13.2092 12.5582C13.7119 12.5582 14.1209 12.971 14.1209 13.4783C14.1209 13.9857 13.7119 14.3985 13.2092 14.3985Z" fill="black"/>
<path d="M13.2091 11.4457C12.0985 11.4457 11.1949 12.3575 11.1949 13.4783C11.1949 14.5992 12.0985 15.5111 13.2091 15.5111C14.3198 15.5111 15.2233 14.5992 15.2233 13.4783C15.2233 12.3575 14.3198 11.4457 13.2091 11.4457ZM13.2091 15.1907C12.2736 15.1907 11.5124 14.4225 11.5124 13.4783C11.5124 12.5342 12.2736 11.766 13.2091 11.766C14.1447 11.766 14.9058 12.5342 14.9058 13.4783C14.9058 14.4225 14.1447 15.1907 13.2091 15.1907Z" fill="black"/>
<path d="M19.9934 11.0531L16.7657 0.114505C16.7534 0.0726556 16.7246 0.0376942 16.6861 0.0177506C16.6476 -0.00223307 16.6027 -0.00551695 16.5619 0.00877997L10.2782 2.19545C10.1978 2.2234 10.1536 2.31034 10.1778 2.3926L10.2558 2.65675C9.32455 2.84253 8.44741 3.19539 7.64464 3.70744C5.75917 2.50477 3.48792 2.19801 0.891858 2.79576C0.819636 2.81238 0.768446 2.87717 0.768446 2.9519V14.3607C0.468606 15.4031 0.202259 16.8405 0.0246405 17.9132C-0.0521448 18.377 0.0519023 18.845 0.317575 19.231C0.583368 19.6171 0.981659 19.8786 1.43916 19.9674C2.03769 20.0837 2.64613 19.8848 3.06637 19.4355C3.73899 18.7165 5.05838 17.5103 6.3379 17.5103H11.4364C12.7159 17.5103 14.0354 18.7165 14.708 19.4355C15.0492 19.8003 15.5143 20 15.9977 20C16.1096 20 16.2226 19.9893 16.3352 19.9674C16.7926 19.8787 17.191 19.6171 17.4567 19.231C17.7224 18.845 17.8265 18.377 17.7497 17.9132C17.5527 16.7234 17.2465 15.0845 16.9065 14.0342C16.7463 13.5389 16.528 13.0295 16.2743 12.5477C16.6214 12.6682 17.0003 12.7309 17.3917 12.7309C18.6493 12.7309 19.7439 12.0624 19.9943 11.1413C20.0022 11.1123 20.0019 11.0818 19.9934 11.0531ZM7.80321 3.98597C8.58428 3.48581 9.43888 3.14289 10.3469 2.96552L10.7931 4.47763C10.0285 4.59068 9.30741 4.86649 8.64781 5.2988C8.57428 5.34698 8.55341 5.44622 8.60114 5.52038C8.63154 5.56764 8.68245 5.59331 8.7344 5.59331C8.76404 5.59331 8.794 5.58498 8.82071 5.56744C9.45471 5.15191 10.1488 4.89032 10.8848 4.78836L11.2659 6.08009C10.3215 6.13779 9.44134 6.42978 8.64777 6.94995C8.57424 6.99813 8.55337 7.09737 8.6011 7.17154C8.6315 7.21879 8.68241 7.24446 8.73436 7.24446C8.764 7.24446 8.79396 7.23613 8.82067 7.21859C9.58816 6.71552 10.442 6.43947 11.3592 6.39614L11.8089 7.9203C11.6679 7.90328 11.5247 7.89467 11.3808 7.89467C9.91594 7.89467 8.7242 8.78837 8.7242 9.88687C8.7242 10.19 8.81376 10.484 8.98535 10.7517H7.80313V3.98597H7.80321ZM1.08587 3.08034C3.54978 2.53877 5.70171 2.84373 7.48575 3.98589V10.7519H7.13738C6.94353 10.5076 6.20941 9.72684 4.74362 9.72684C3.9551 9.72684 3.13252 10.2374 2.36483 11.2031C1.87229 11.8228 1.41483 12.627 1.08587 13.4378V3.08034ZM16.6048 14.1336C16.9386 15.1651 17.2413 16.787 17.4365 17.966C17.568 18.76 17.0579 19.5009 16.2752 19.6528C15.7837 19.7481 15.2841 19.5847 14.9388 19.2156C14.0743 18.2915 12.765 17.1899 11.4364 17.1899H6.3379C5.00934 17.1899 3.69994 18.2915 2.8355 19.2156C2.49018 19.5847 1.99046 19.7481 1.49908 19.6528C0.716383 19.5009 0.206267 18.76 0.337734 17.966C0.532931 16.787 0.835708 15.165 1.16952 14.1336C1.48213 13.1676 2.02153 12.1471 2.61244 11.4037C3.10431 10.7849 3.87331 10.0473 4.74362 10.0473C5.77759 10.0473 6.40115 10.4688 6.70357 10.7519H6.42064C6.33298 10.7519 6.26191 10.8236 6.26191 10.9121C6.26191 11.0005 6.33298 11.0723 6.42064 11.0723H11.3537C11.4413 11.0723 11.5124 11.0005 11.5124 10.9121C11.5124 10.8236 11.4413 10.7519 11.3537 10.7519H11.0707C11.3732 10.4688 11.9967 10.0473 13.0307 10.0473C13.901 10.0473 14.67 10.7849 15.1619 11.4037C15.7528 12.1471 16.2922 13.1676 16.6048 14.1336ZM13.4863 6.33375C13.2535 6.27051 13.0215 6.21853 12.7953 6.178L12.3851 4.78792C12.7155 4.82965 13.0572 4.89777 13.4039 4.99192C13.4177 4.99568 13.4315 4.99748 13.4452 4.99748C13.5152 4.99748 13.5793 4.95035 13.5984 4.87886C13.6212 4.79344 13.571 4.70554 13.4863 4.68259C13.0772 4.5715 12.6741 4.49505 12.2866 4.45412L12.1958 4.14656L14.2034 3.44797V10.0882C14.1029 10.0271 14.0023 9.97361 13.9017 9.92784L12.8972 6.52341C13.0641 6.55717 13.2337 6.59702 13.4038 6.64319C13.4176 6.64696 13.4315 6.64876 13.4452 6.64876C13.5152 6.64876 13.5793 6.60162 13.5983 6.53014C13.6212 6.44464 13.571 6.35669 13.4863 6.33375ZM14.5209 10.3067V3.33744L16.0583 2.80241L17.8197 8.77199C17.6787 8.75497 17.5355 8.74636 17.3917 8.74636C16.034 8.74636 14.9117 9.51419 14.7546 10.501C14.6769 10.4318 14.599 10.367 14.5209 10.3067ZM17.3917 12.4104C16.8927 12.4104 16.4182 12.2991 16.0163 12.0887C15.8252 11.7691 15.6207 11.4689 15.4095 11.2031C15.2921 11.0555 15.1734 10.9185 15.0537 10.7923C15.0529 10.7744 15.0525 10.7564 15.0525 10.7386C15.0525 9.81671 16.1019 9.06674 17.3917 9.06674C17.6025 9.06674 17.8116 9.08696 18.0131 9.12681C18.0676 9.1375 18.1238 9.11876 18.1611 9.07731C18.1984 9.03582 18.2116 8.97763 18.1957 8.92389L16.3153 2.55075C16.3029 2.5089 16.2742 2.47394 16.2357 2.45399C16.1972 2.43401 16.1523 2.43073 16.1114 2.44502L11.9486 3.89366C11.8682 3.92161 11.8239 4.00855 11.8482 4.09081L13.5311 9.79416C13.3633 9.74967 13.1963 9.72684 13.0307 9.72684C11.5649 9.72684 10.8308 10.5076 10.6369 10.7519H9.38122C9.15888 10.4908 9.04174 10.1931 9.04174 9.88703C9.04174 8.96518 10.0911 8.21521 11.3809 8.21521C11.5918 8.21521 11.8008 8.23544 12.0024 8.27528C12.0569 8.28598 12.1131 8.26723 12.1504 8.22578C12.1878 8.1843 12.2009 8.12611 12.1851 8.07236L10.5255 2.44827L16.5088 0.366163L19.6758 11.0992C19.4396 11.8616 18.4887 12.4104 17.3917 12.4104Z" fill="black"/>
<path d="M1.88522 4.99187C3.62354 4.51983 5.16548 4.71358 6.46833 5.56751C6.49504 5.58505 6.525 5.59338 6.55464 5.59338C6.60662 5.59338 6.65749 5.56767 6.68789 5.52046C6.73563 5.44625 6.71476 5.34705 6.64122 5.29887C5.25957 4.39328 3.63164 4.1858 1.80272 4.68254C1.71808 4.70549 1.66792 4.79343 1.69066 4.87882C1.71339 4.9642 1.80054 5.01486 1.88522 4.99187Z" fill="black"/>
<path d="M1.88518 6.64311C3.6235 6.17112 5.16544 6.36483 6.46833 7.21876C6.49504 7.2363 6.525 7.24463 6.55464 7.24463C6.60662 7.24463 6.65749 7.21892 6.68789 7.1717C6.73563 7.09749 6.71476 6.9983 6.64122 6.95012C5.25957 6.04453 3.63164 5.83704 1.80272 6.33379C1.71808 6.35674 1.66792 6.44468 1.69066 6.53006C1.71339 6.61544 1.8005 6.66606 1.88518 6.64311Z" fill="black"/>
<path d="M6.46833 8.86992C6.49504 8.88747 6.525 8.8958 6.55464 8.8958C6.60662 8.8958 6.65749 8.87009 6.68789 8.82287C6.73563 8.74866 6.71476 8.64946 6.64122 8.60129C5.25957 7.6957 3.63164 7.48821 1.80272 7.98496C1.71808 8.0079 1.66792 8.09585 1.69066 8.18123C1.71339 8.26661 1.8005 8.31723 1.88518 8.29428C3.62354 7.82228 5.16548 8.01599 6.46833 8.86992Z" fill="black"/>
</svg>
