<svg width="20" height="20" viewBox="0 0 20 20" fill="none" xmlns="http://www.w3.org/2000/svg">
<path d="M15.1724 20C12.5172 20 10.3447 17.9 10.3447 15.3333C10.3447 12.7667 12.5172 10.6667 15.1724 10.6667C17.8276 10.6667 20.0001 12.7667 20.0001 15.3333C20.0001 17.9 17.8276 20 15.1724 20ZM15.1724 11.3333C12.8965 11.3333 11.0344 13.1333 11.0344 15.3333C11.0344 17.5333 12.8965 19.3333 15.1724 19.3333C17.4483 19.3333 19.3104 17.5333 19.3104 15.3333C19.3104 13.1333 17.4483 11.3333 15.1724 11.3333Z" fill="#333333"/>
<path d="M15.517 15V13.3333C15.8963 13.3333 16.2067 13.6333 16.2067 14H16.8963C16.8963 13.2667 16.2756 12.6667 15.517 12.6667V12H14.8273V12.6667C14.0687 12.6667 13.448 13.2667 13.448 14V14.3333C13.448 15.0666 14.0687 15.6666 14.8273 15.6666V17.3333C14.448 17.3333 14.1377 17.0333 14.1377 16.6666H13.448C13.448 17.4 14.0687 18 14.8273 18V18.6666H15.517V18C16.2756 18 16.8963 17.4 16.8963 16.6666V16.3333C16.8963 15.6 16.2756 15 15.517 15ZM14.1377 14.3333V14C14.1377 13.6333 14.448 13.3333 14.8273 13.3333V15C14.448 15 14.1377 14.7 14.1377 14.3333ZM16.2067 16.6666C16.2067 17.0333 15.8963 17.3333 15.517 17.3333V15.6666C15.8963 15.6666 16.2067 15.9666 16.2067 16.3333V16.6666Z" fill="#333333"/>
<path d="M14.7929 3.33333H11.379V2.66667C11.379 1.2 10.1376 0 8.62033 0C7.10306 0 5.86165 1.2 5.86165 2.66667V3.33333H2.51677L0.0339637 15.3333C-0.0694865 15.8333 0.0684471 16.3333 0.378797 16.7333C0.723631 17.1 1.2064 17.3333 1.72365 17.3333H10.0686C9.96518 17.1333 9.89621 16.9 9.82724 16.6667H1.72365C1.4133 16.6667 1.13743 16.5333 0.930531 16.3C0.723631 16.0667 0.654664 15.7667 0.723631 15.4667L3.0685 4H5.86165V5.33333H6.55132V4H10.6893V5.33333H11.379V4H14.2411L15.4825 9.99999C15.7239 9.99999 15.9653 10.0333 16.2067 10.0667L14.7929 3.33333ZM6.55132 3.33333V2.66667C6.55132 1.56667 7.48237 0.666666 8.62033 0.666666C9.75828 0.666666 10.6893 1.56667 10.6893 2.66667V3.33333H6.55132Z" fill="#333333"/>
</svg>
