<svg width="52" height="52" viewBox="0 0 52 52" fill="none" xmlns="http://www.w3.org/2000/svg">
<path d="M39.4482 51.9999C32.5446 51.9999 26.8962 46.5399 26.8962 39.8666C26.8962 33.1933 32.5446 27.7333 39.4482 27.7333C46.3518 27.7333 52.0001 33.1933 52.0001 39.8666C52.0001 46.5399 46.3518 51.9999 39.4482 51.9999ZM39.4482 29.4666C33.5308 29.4666 28.6894 34.1466 28.6894 39.8666C28.6894 45.5866 33.5308 50.2666 39.4482 50.2666C45.3655 50.2666 50.207 45.5866 50.207 39.8666C50.207 34.1466 45.3655 29.4666 39.4482 29.4666Z" fill="#666666"/>
<path d="M40.3443 38.9999V34.6666C41.3305 34.6666 42.1374 35.4466 42.1374 36.3999H43.9305C43.9305 34.4933 42.3167 32.9333 40.3443 32.9333V31.2H38.5511V32.9333C36.5787 32.9333 34.9648 34.4933 34.9648 36.3999V37.2666C34.9648 39.1733 36.5787 40.7333 38.5511 40.7333V45.0666C37.5649 45.0666 36.758 44.2866 36.758 43.3333H34.9648C34.9648 45.2399 36.5787 46.7999 38.5511 46.7999V48.5333H40.3443V46.7999C42.3167 46.7999 43.9305 45.2399 43.9305 43.3333V42.4666C43.9305 40.5599 42.3167 38.9999 40.3443 38.9999ZM36.758 37.2666V36.3999C36.758 35.4466 37.5649 34.6666 38.5511 34.6666V38.9999C37.5649 38.9999 36.758 38.2199 36.758 37.2666ZM42.1374 43.3333C42.1374 44.2866 41.3305 45.0666 40.3443 45.0666V40.7333C41.3305 40.7333 42.1374 41.5133 42.1374 42.4666V43.3333Z" fill="#666666"/>
<path d="M38.4614 8.66666H29.5854V6.93333C29.5854 3.12 26.3577 0 22.4128 0C18.4679 0 15.2403 3.12 15.2403 6.93333V8.66666H6.54359L0.0883055 39.8666C-0.180665 41.1666 0.177962 42.4666 0.984873 43.5066C1.88144 44.46 3.13664 45.0666 4.48149 45.0666H26.1784C25.9095 44.5466 25.7301 43.94 25.5508 43.3333H4.48149C3.67458 43.3333 2.95732 42.9866 2.41938 42.38C1.88144 41.7733 1.70213 40.9933 1.88144 40.2133L7.9781 10.4H15.2403V13.8667H17.0334V10.4H27.7923V13.8667H29.5854V10.4H37.0269L40.2545 26C40.8821 26 41.5097 26.0867 42.1373 26.1733L38.4614 8.66666ZM17.0334 8.66666V6.93333C17.0334 4.07333 19.4542 1.73333 22.4128 1.73333C25.3715 1.73333 27.7923 4.07333 27.7923 6.93333V8.66666H17.0334Z" fill="#666666"/>
</svg>
