<svg width="156" height="318" viewBox="0 0 156 318" fill="none" xmlns="http://www.w3.org/2000/svg">
<path d="M156 75.5687H154.281V27.7032C154.281 20.3559 151.409 13.3095 146.298 8.1141C141.187 2.91874 134.254 9.16159e-06 127.026 1.75822e-10H27.2555C23.6763 -1.29606e-05 20.1321 0.71654 16.8253 2.10874C13.5185 3.50095 10.5139 5.54154 7.98298 8.11401C5.45208 10.6865 3.44445 13.7405 2.07473 17.1016C0.705004 20.4627 1.27513e-05 24.0651 0 27.7031V290.297C-5.10049e-06 293.935 0.704961 297.537 2.07467 300.898C3.44438 304.259 5.452 307.313 7.98289 309.886C10.5138 312.458 13.5184 314.499 16.8252 315.891C20.1319 317.283 23.6761 318 27.2553 318H127.025C130.605 318 134.149 317.283 137.456 315.891C140.762 314.499 143.767 312.458 146.298 309.886C148.829 307.313 150.837 304.26 152.206 300.898C153.576 297.537 154.281 293.935 154.281 290.297V109.64H156V75.5687Z" fill="#3F3D56"/>
<path d="M128.289 6.91309H115.223C115.824 8.40843 116.054 10.0308 115.891 11.6374C115.729 13.2439 115.18 14.7852 114.293 16.1256C113.405 17.466 112.207 18.5643 110.802 19.3237C109.398 20.0832 107.832 20.4804 106.241 20.4806H48.8966C47.3056 20.4804 45.7391 20.0832 44.335 19.3237C42.9309 18.5643 41.7324 17.466 40.8449 16.1256C39.9575 14.7852 39.4085 13.2439 39.2461 11.6374C39.0838 10.0308 39.3131 8.40844 39.914 6.91309H27.7104C22.2944 6.91308 17.1004 9.09696 13.2707 12.9843C9.44109 16.8717 7.28962 22.1441 7.28961 27.6416V290.358C7.28961 293.081 7.81781 295.776 8.84405 298.291C9.87028 300.806 11.3745 303.091 13.2707 305.016C15.1669 306.941 17.4181 308.467 19.8957 309.509C22.3732 310.551 25.0286 311.087 27.7103 311.087H128.289C133.705 311.087 138.899 308.903 142.729 305.016C146.559 301.128 148.71 295.856 148.71 290.358V27.6417C148.71 24.9195 148.182 22.2241 147.156 19.7092C146.129 17.1943 144.625 14.9092 142.729 12.9843C140.833 11.0595 138.582 9.53266 136.104 8.49095C133.627 7.44924 130.971 6.91309 128.289 6.91309ZM126.094 128.789C126.09 130.212 125.532 131.575 124.541 132.581C123.549 133.587 122.206 134.154 120.805 134.158H95.2395C93.838 134.154 92.495 133.587 91.5039 132.581C90.5128 131.575 89.9542 130.212 89.9501 128.789V127.447C89.9543 126.024 90.5128 124.661 91.5039 123.655C92.495 122.649 93.838 122.082 95.2395 122.078H120.805C122.206 122.082 123.549 122.649 124.541 123.655C125.532 124.661 126.09 126.024 126.094 127.447V128.789ZM128.959 105.075C128.955 106.498 128.397 107.861 127.406 108.867C126.415 109.873 125.072 110.44 123.67 110.445H31.9873C30.5857 110.44 29.2427 109.873 28.2517 108.867C27.2606 107.861 26.702 106.498 26.6979 105.075V103.733C26.702 102.31 27.2606 100.947 28.2517 99.9412C29.2427 98.9352 30.5857 98.3682 31.9873 98.364H123.67C125.072 98.3682 126.415 98.9352 127.406 99.9412C128.397 100.947 128.955 102.31 128.959 103.733V105.075ZM128.959 81.3618C128.955 82.7845 128.397 84.1477 127.406 85.1537C126.415 86.1597 125.072 86.7268 123.67 86.7309H31.9873C30.5857 86.7268 29.2427 86.1598 28.2517 85.1538C27.2606 84.1478 26.702 82.7845 26.6979 81.3618V80.0195C26.702 78.5968 27.2606 77.2336 28.2517 76.2276C29.2427 75.2216 30.5857 74.6545 31.9873 74.6504H123.67C125.072 74.6546 126.415 75.2216 127.406 76.2276C128.397 77.2336 128.955 78.5968 128.959 80.0195V81.3618ZM128.959 57.6482C128.955 59.0709 128.397 60.4341 127.406 61.4401C126.415 62.4461 125.072 63.0131 123.67 63.0173H31.9873C30.5857 63.0131 29.2427 62.4461 28.2517 61.4401C27.2606 60.4341 26.702 59.0709 26.6979 57.6482V56.3059C26.702 54.8832 27.2606 53.5199 28.2517 52.5139C29.2427 51.5079 30.5857 50.9409 31.9873 50.9367H123.67C125.072 50.9409 126.415 51.5079 127.406 52.5139C128.397 53.5199 128.955 54.8832 128.959 56.3059V57.6482Z" fill="white"/>
<path d="M62.8541 107.976C64.5543 107.976 65.9326 106.576 65.9326 104.848C65.9326 103.121 64.5543 101.72 62.8541 101.72C61.1539 101.72 59.7757 103.121 59.7757 104.848C59.7757 106.576 61.1539 107.976 62.8541 107.976Z" fill="white"/>
<path d="M72.9693 107.976C74.6695 107.976 76.0477 106.576 76.0477 104.848C76.0477 103.121 74.6695 101.72 72.9693 101.72C71.2691 101.72 69.8908 103.121 69.8908 104.848C69.8908 106.576 71.2691 107.976 72.9693 107.976Z" fill="white"/>
<path d="M83.0839 107.976C84.7841 107.976 86.1624 106.576 86.1624 104.848C86.1624 103.121 84.7841 101.72 83.0839 101.72C81.3837 101.72 80.0054 103.121 80.0054 104.848C80.0054 106.576 81.3837 107.976 83.0839 107.976Z" fill="white"/>
<path d="M93.1988 107.976C94.899 107.976 96.2773 106.576 96.2773 104.848C96.2773 103.121 94.899 101.72 93.1988 101.72C91.4986 101.72 90.1204 103.121 90.1204 104.848C90.1204 106.576 91.4986 107.976 93.1988 107.976Z" fill="white"/>
<path d="M98.3308 131.184C100.031 131.184 101.409 129.784 101.409 128.056C101.409 126.329 100.031 124.928 98.3308 124.928C96.6306 124.928 95.2523 126.329 95.2523 128.056C95.2523 129.784 96.6306 131.184 98.3308 131.184Z" fill="white"/>
<path d="M108.446 131.184C110.146 131.184 111.524 129.784 111.524 128.056C111.524 126.329 110.146 124.928 108.446 124.928C106.746 124.928 105.367 126.329 105.367 128.056C105.367 129.784 106.746 131.184 108.446 131.184Z" fill="white"/>
<path d="M118.561 131.184C120.261 131.184 121.639 129.784 121.639 128.056C121.639 126.329 120.261 124.928 118.561 124.928C116.86 124.928 115.482 126.329 115.482 128.056C115.482 129.784 116.86 131.184 118.561 131.184Z" fill="white"/>
<g clip-path="url(#clip0_69_1171)">
<path d="M105.802 288.465L103.364 288.465L102.204 278.908H105.802L105.802 288.465Z" fill="#FFB6B6"/>
<path d="M105.737 287.655L103.134 286.579L103.059 286.548L101.622 287.655C100.811 287.656 100.033 287.983 99.4589 288.566C98.8851 289.15 98.5628 289.94 98.5626 290.765V290.866H106.423V287.655H105.737Z" fill="#2F2E41"/>
<path d="M127.829 285.243L125.647 286.349L120.414 278.321L123.635 276.69L127.829 285.243Z" fill="#FFB6B6"/>
<path d="M128.031 284.237L127.473 284.519L127.415 284.548L124.618 284.767L124.534 284.773L123.733 286.414C123.373 286.596 123.052 286.849 122.789 287.157C122.525 287.465 122.324 287.823 122.197 288.21C122.069 288.598 122.018 289.007 122.046 289.414C122.074 289.821 122.181 290.219 122.361 290.585L122.405 290.674L129.439 287.112L128.031 284.237Z" fill="#2F2E41"/>
<path d="M104.148 237.096L117.591 237.574L117.684 237.436C117.684 237.436 118.831 240.155 118.831 242.486C118.831 243.261 118.301 248.33 118.57 249.289C118.604 249.408 118.373 249.7 118.449 250.255C118.498 250.616 118.769 250.339 118.831 250.838C118.876 251.197 118.399 251.395 118.449 251.809C118.503 252.262 119.159 253.73 119.218 254.234C119.847 259.6 120.683 267.374 120.683 267.374C120.683 267.374 124.044 276.523 124.755 276.671C125.949 276.921 126.754 279.126 126.093 279.585C125.778 279.803 121.708 281.273 121.708 281.273C121.485 281.314 120.785 280.957 121.231 280.114C121.313 279.958 120.823 280.354 120.742 280.168C120.656 279.97 120.825 279.183 120.726 278.964C119.837 276.994 118.471 274.264 117.177 272.862C115.265 270.79 114.054 268.152 113.721 265.332L110.753 248.604L109.735 253.295L108.894 254.14L109.125 256.111L109.085 258.025L106.983 265.988C106.983 265.988 106.667 280.861 107.174 281.333C107.448 281.589 108.612 284.74 106.409 285.024L102.408 284.71C102.408 284.71 101.869 283.555 102.138 283.144C102.408 282.733 102.392 282.845 102.063 282.173C101.734 281.5 101.869 280.36 101.869 280.36C101.345 275.005 101.138 269.622 101.25 264.24C101.45 255.402 102.666 245.249 102.666 245.042C102.676 244.83 102.638 244.619 102.554 244.425V243.868L103.07 241.891L104.148 237.096Z" fill="#2F2E41"/>
<path d="M123.065 238.767C125.997 238.767 128.374 236.351 128.374 233.371C128.374 230.391 125.997 227.975 123.065 227.975C120.133 227.975 117.756 230.391 117.756 233.371C117.756 236.351 120.133 238.767 123.065 238.767Z" fill="#111111"/>
<path d="M122.341 236.179C122.249 236.179 122.159 236.158 122.077 236.116C121.995 236.074 121.923 236.014 121.868 235.939L120.42 233.976C120.374 233.913 120.34 233.842 120.32 233.765C120.301 233.689 120.297 233.609 120.308 233.531C120.319 233.453 120.345 233.378 120.384 233.31C120.424 233.243 120.476 233.183 120.538 233.136C120.6 233.089 120.671 233.054 120.746 233.035C120.821 233.015 120.899 233.011 120.976 233.022C121.053 233.033 121.127 233.06 121.193 233.1C121.26 233.14 121.318 233.193 121.365 233.256L122.313 234.54L124.746 230.83C124.789 230.764 124.844 230.708 124.909 230.664C124.973 230.62 125.046 230.589 125.122 230.574C125.198 230.558 125.276 230.558 125.352 230.574C125.428 230.589 125.501 230.619 125.565 230.663C125.63 230.707 125.685 230.763 125.729 230.828C125.772 230.894 125.802 230.968 125.817 231.045C125.832 231.122 125.832 231.202 125.817 231.279C125.802 231.357 125.772 231.43 125.729 231.496L122.832 235.912C122.78 235.992 122.709 236.058 122.627 236.104C122.544 236.151 122.452 236.176 122.357 236.179C122.352 236.179 122.346 236.179 122.341 236.179Z" fill="white"/>
<path d="M125.69 239.075C125.742 238.855 125.745 238.625 125.7 238.403C125.655 238.181 125.563 237.971 125.43 237.789C125.297 237.607 125.126 237.457 124.929 237.35C124.733 237.242 124.516 237.18 124.293 237.167L121.573 227.747L119.732 229.917L122.66 238.737C122.663 239.119 122.804 239.486 123.056 239.77C123.308 240.053 123.654 240.232 124.027 240.274C124.401 240.316 124.776 240.217 125.083 239.996C125.389 239.775 125.605 239.447 125.69 239.075Z" fill="#FFB8B8"/>
<path d="M123.771 234.48L123.418 233.163L123.823 232.376L123.792 232.285L123.67 231.931L123.035 231.415L123.263 230.756L122.46 228.439L122.263 228.037L117.656 218.634L116.551 216.379L116.295 215.971L115.498 214.701L114.409 212.966C114.236 212.689 114.01 212.45 113.745 212.262C113.48 212.074 113.181 211.942 112.865 211.873C112.763 211.85 112.659 211.834 112.555 211.824L112.481 211.818C112.295 211.808 112.108 211.819 111.925 211.851H111.921C111.597 211.908 111.289 212.033 111.015 212.216C110.799 212.358 110.607 212.534 110.445 212.737C110.073 213.206 109.88 213.796 109.901 214.398L109.935 215.346L109.97 216.208L111.586 219.18L111.691 219.374L111.693 219.38L116.668 228.528L118.168 231.286L118.395 231.706L119.404 232.386L119.135 233.07L119.213 234.134L120.071 234.792L121.315 236.076L121.365 236.181L121.747 235.985L121.784 235.966L121.87 235.94L123.053 235.577L123.771 235.358L123.794 235.35L123.991 235.299L123.771 234.48Z" fill="#E6E6E6"/>
<path d="M144.221 277.243C143.861 276.777 143.371 276.432 142.816 276.251C142.261 276.071 141.665 276.064 141.106 276.231L140.984 276.268L139.887 280.62C139.722 279.972 139.371 278.507 139.149 277.074L139.13 276.955L139.021 277.004C137.874 277.519 136.796 278.179 135.812 278.969C134.07 280.39 132.652 282.18 131.658 284.214C130.665 286.248 130.119 288.478 130.058 290.748L130.056 290.831L130.055 290.884L130.2 290.831L133.317 289.699C134.697 289.822 136.086 289.631 137.384 289.139C138.682 288.647 139.856 287.867 140.819 286.855C142.079 285.505 142.942 283.769 143.778 282.089C144.022 281.599 144.273 281.094 144.529 280.609C144.814 280.081 144.938 279.478 144.883 278.878C144.828 278.278 144.597 277.708 144.221 277.243Z" fill="#D8D8D8"/>
<path d="M64.2359 204.985H63.8537V190.021H91.4981V190.409H64.2359V204.985Z" fill="#3F3D56"/>
<path d="M95.7373 194.481C98.6693 194.481 101.046 192.065 101.046 189.085C101.046 186.105 98.6693 183.689 95.7373 183.689C92.8053 183.689 90.4285 186.105 90.4285 189.085C90.4285 192.065 92.8053 194.481 95.7373 194.481Z" fill="#111111"/>
<path d="M95.0131 191.894C94.9214 191.894 94.831 191.872 94.749 191.83C94.667 191.789 94.5957 191.728 94.5407 191.653L93.0923 189.691C93.0458 189.628 93.012 189.556 92.9927 189.48C92.9735 189.403 92.9692 189.324 92.9802 189.246C92.9911 189.168 93.0171 189.093 93.0566 189.025C93.0962 188.957 93.1484 188.898 93.2105 188.85C93.2725 188.803 93.3431 188.769 93.4182 188.749C93.4934 188.73 93.5715 188.725 93.6483 188.736C93.7251 188.748 93.7989 188.774 93.8657 188.814C93.9324 188.854 93.9907 188.907 94.0372 188.97L94.9847 190.254L97.4184 186.544C97.4614 186.479 97.5167 186.422 97.5811 186.378C97.6456 186.334 97.7179 186.304 97.794 186.288C97.8701 186.273 97.9484 186.273 98.0245 186.288C98.1007 186.303 98.1731 186.334 98.2376 186.377C98.3022 186.421 98.3576 186.477 98.4008 186.543C98.444 186.608 98.474 186.682 98.4892 186.759C98.5044 186.837 98.5044 186.916 98.4893 186.994C98.4742 187.071 98.4442 187.145 98.4011 187.21L95.5045 191.626C95.4521 191.706 95.3816 191.772 95.2989 191.819C95.2163 191.865 95.1239 191.891 95.0295 191.893C95.024 191.894 95.0185 191.894 95.0131 191.894Z" fill="white"/>
<path d="M45.5078 241.316H45.1256V256.281H72.77V255.892H45.5078V241.316Z" fill="#3F3D56"/>
<path d="M77.0092 261.687C79.9412 261.687 82.3181 259.271 82.3181 256.291C82.3181 253.311 79.9412 250.895 77.0092 250.895C74.0772 250.895 71.7004 253.311 71.7004 256.291C71.7004 259.271 74.0772 261.687 77.0092 261.687Z" fill="#111111"/>
<path d="M76.285 259.099C76.1933 259.099 76.1029 259.077 76.0209 259.036C75.9389 258.994 75.8676 258.933 75.8126 258.859L74.3643 256.896C74.3177 256.833 74.2839 256.761 74.2646 256.685C74.2454 256.608 74.2411 256.529 74.2521 256.451C74.2631 256.373 74.289 256.298 74.3286 256.23C74.3681 256.162 74.4203 256.103 74.4824 256.056C74.5444 256.008 74.615 255.974 74.6901 255.954C74.7653 255.935 74.8434 255.931 74.9202 255.942C74.997 255.953 75.0708 255.979 75.1376 256.019C75.2043 256.06 75.2626 256.113 75.3091 256.176L76.2567 257.46L78.6903 253.75C78.7333 253.684 78.7886 253.627 78.853 253.584C78.9175 253.54 78.9898 253.509 79.0659 253.494C79.142 253.478 79.2203 253.478 79.2964 253.493C79.3726 253.508 79.445 253.539 79.5096 253.583C79.5741 253.626 79.6296 253.683 79.6727 253.748C79.7159 253.814 79.7459 253.887 79.7611 253.965C79.7763 254.042 79.7763 254.122 79.7612 254.199C79.7461 254.276 79.7161 254.35 79.673 254.415L76.7764 258.832C76.724 258.912 76.6535 258.977 76.5709 259.024C76.4882 259.07 76.3958 259.096 76.3014 259.099C76.2959 259.099 76.2904 259.099 76.285 259.099Z" fill="white"/>
<path d="M119.022 241.866C119.028 242.275 118.963 242.682 118.831 243.069L118.802 243.063C115.408 243.66 112.381 243.757 110.98 241.64C109.153 239.275 106.639 239.302 103.835 240.34L103.503 239.975L102.937 239.355L103.457 238.757L102.937 237.603L103.371 236.179L103.925 236.076L103.776 234.851L103.543 234.134L104.227 233.371L104.808 231.465L104.389 227.478C103.817 222.012 104.926 216.5 107.566 211.702L109.154 210.253L109.813 209.651L110.698 207.972L111.632 208.083L114.162 208.38L114.248 208.59L114.869 210.113L118.141 213.685L117.994 215.192L117.929 215.856L117.881 216.334L117.656 218.634L116.737 228.029L116.668 228.528L115.928 233.93C117.13 235.111 118.193 237.385 118.703 239.464C118.76 239.695 118.598 239.93 118.64 240.155C118.699 240.474 118.957 240.777 118.986 241.074C119.013 241.337 119.025 241.602 119.022 241.866Z" fill="#E6E6E6"/>
<path d="M112.542 207.371C114.969 207.371 116.937 205.371 116.937 202.904C116.937 200.437 114.969 198.438 112.542 198.438C110.115 198.438 108.147 200.437 108.147 202.904C108.147 205.371 110.115 207.371 112.542 207.371Z" fill="#FFB6B6"/>
<path d="M117.84 201.686C117.58 200.862 116.866 200.164 116.019 200.073C116.084 199.526 115.999 198.971 115.774 198.469C115.55 197.967 115.194 197.538 114.746 197.227C114.298 196.917 113.774 196.737 113.233 196.708C112.691 196.679 112.152 196.801 111.674 197.062C111.573 196.938 111.441 196.843 111.293 196.785C111.145 196.728 110.984 196.711 110.827 196.735C110.513 196.787 110.218 196.919 109.967 197.118C109.344 197.581 108.857 198.206 108.557 198.929C108.256 199.651 108.154 200.442 108.261 201.218C108.259 200.825 108.431 201.587 108.923 201.654C109.333 201.738 109.723 201.902 110.073 202.136C110.422 202.371 110.811 202.536 111.22 202.625C111.633 202.686 111.74 204.369 111.445 205.453C111.389 205.658 111.36 205.934 111.547 206.032C111.776 206.152 112.008 205.849 112.265 205.82C112.38 205.818 112.491 205.862 112.575 205.942C112.659 206.022 112.709 206.132 112.715 206.248C112.716 206.366 112.688 206.481 112.636 206.586C112.583 206.69 112.507 206.78 112.413 206.848C112.224 206.983 112.015 207.086 111.794 207.153L111.869 207.26C111.933 207.382 112.038 207.478 112.165 207.53C112.291 207.582 112.432 207.588 112.562 207.547C112.856 207.907 115.884 206.907 116.032 206.249C116.666 205.669 117.193 204.977 117.587 204.207C117.981 203.429 118.071 202.529 117.84 201.686Z" fill="#2F2E41"/>
<path d="M121.394 215.289C121.333 215.81 120.853 216.198 120.348 216.307C120.092 216.357 119.829 216.362 119.571 216.321C119.318 216.283 119.069 216.226 118.825 216.152C118.523 216.064 118.225 215.966 117.929 215.856C117.085 215.55 116.271 215.163 115.498 214.701C114.914 214.354 114.355 213.966 113.824 213.539C113.549 213.318 113.282 213.087 113.023 212.846L113.346 213.001C113.058 212.607 112.769 212.213 112.481 211.818C112.202 211.438 111.923 211.057 111.646 210.676C111.628 210.653 111.615 210.637 111.609 210.63V210.628C111.481 210.455 111.355 210.282 111.229 210.109C110.849 209.59 110.474 208.829 110.912 208.361C111.005 208.27 111.118 208.202 111.242 208.164C111.366 208.126 111.497 208.118 111.625 208.141C111.762 208.16 111.894 208.203 112.016 208.27C112.351 208.49 112.634 208.781 112.848 209.122C113.146 208.681 113.725 208.518 114.248 208.59C114.277 208.592 114.304 208.596 114.331 208.6C114.875 208.695 115.11 208.396 115.582 208.689C115.802 208.825 115.936 209.524 116.156 209.66C116.28 209.738 116.74 209.855 116.866 209.934C117.115 210.09 117.052 210.67 117.302 210.826C117.488 210.94 117.984 210.632 118.17 210.746C118.365 210.869 118.636 211.677 118.831 211.797C119.219 212.04 119.53 211.597 119.918 211.838C120.417 212.15 120.948 212.498 121.159 213.054C121.344 213.543 121.105 214.213 120.645 214.353C120.865 214.38 121.066 214.492 121.206 214.667C121.345 214.842 121.413 215.065 121.394 215.289Z" fill="#E6E6E6"/>
<path opacity="0.2" d="M117.929 215.856L117.881 216.334C117.34 216.281 116.807 216.159 116.295 215.971C115.622 215.741 115.037 215.3 114.627 214.71C114.367 214.314 114.095 213.92 113.824 213.539C113.373 212.902 112.926 212.308 112.555 211.824C112.102 211.24 111.762 210.816 111.646 210.676C111.628 210.653 111.615 210.637 111.609 210.63L111.604 210.624L111.609 210.628C113.88 213.549 116.025 215.233 117.994 215.192C117.994 215.192 118.225 215.965 117.929 215.856Z" fill="black"/>
<path d="M97.1494 192.465C97.0934 192.685 97.0856 192.914 97.1263 193.137C97.167 193.36 97.2553 193.571 97.3851 193.756C97.5148 193.94 97.6828 194.094 97.8772 194.205C98.0715 194.317 98.2876 194.384 98.5101 194.401L101.05 203.873L102.932 201.739L100.172 192.863C100.176 192.481 100.042 192.111 99.7959 191.823C99.5493 191.534 99.2073 191.348 98.8347 191.299C98.4621 191.25 98.0847 191.342 97.7741 191.557C97.4635 191.772 97.2412 192.095 97.1494 192.465Z" fill="#FFB8B8"/>
<path d="M112.064 216.686L112.047 215.823L110.445 212.737L110.386 212.624L110.382 212.619L109.154 210.253L103.224 198.827L102.587 198.589L102.619 197.661L102.587 196.647L101.822 196.125L101.496 195.497L101.034 195.631H101.032L101.018 195.635L98.9964 196.211H98.9945L98.5741 196.452L98.1919 197.618L98.1082 198.169L98.1919 199.172L99.1474 199.366L98.8309 200.393L99.7914 203.35C100.993 208.516 102.635 212.976 105.469 215.522L105.702 215.911L107.546 218.978C107.798 219.397 108.166 219.732 108.605 219.939C109.043 220.146 109.532 220.216 110.01 220.141H110.012C110.336 220.09 110.647 219.972 110.925 219.796C111.182 219.635 111.406 219.426 111.586 219.18C111.916 218.735 112.09 218.192 112.081 217.636L112.064 216.686Z" fill="#E6E6E6"/>
<path d="M145.567 291.276L93.6345 291.335C93.5742 291.335 93.5163 291.311 93.4736 291.268C93.431 291.224 93.407 291.165 93.407 291.104C93.407 291.043 93.431 290.984 93.4736 290.941C93.5163 290.897 93.5742 290.873 93.6345 290.873L145.567 290.813C145.627 290.813 145.685 290.837 145.728 290.881C145.77 290.924 145.794 290.983 145.794 291.044C145.794 291.106 145.77 291.165 145.728 291.208C145.685 291.251 145.627 291.276 145.567 291.276Z" fill="#CACACA"/>
<path d="M30.075 213.545C30.0718 210.625 31.1693 207.815 33.1419 205.693L26.3724 196.223C26.0937 195.833 25.7356 195.508 25.3224 195.271C24.9093 195.034 24.4507 194.891 23.9781 194.85C23.5054 194.81 23.0297 194.873 22.5834 195.037C22.137 195.2 21.7305 195.459 21.3916 195.796C19.0726 198.094 17.2316 200.841 15.9779 203.876C14.7242 206.911 14.0833 210.171 14.0933 213.463C14.0934 214.706 14.1845 215.947 14.3661 217.176C14.4373 217.662 14.612 218.126 14.8779 218.537C15.1439 218.947 15.4947 219.293 15.9058 219.552C16.3124 219.808 16.7689 219.97 17.2436 220.028C17.7183 220.086 18.1998 220.038 18.6543 219.887L30.3433 216.027C30.1654 215.212 30.0754 214.38 30.075 213.545Z" fill="#F2F2F2"/>
<path d="M30.6966 217.297L18.5444 221.311C18.0947 221.458 17.6815 221.703 17.3327 222.027C16.984 222.351 16.7079 222.748 16.5232 223.19C16.3385 223.632 16.2495 224.11 16.2622 224.59C16.2749 225.07 16.389 225.542 16.5967 225.974C18.3273 229.542 20.8784 232.634 24.034 234.988C27.1895 237.342 30.8567 238.889 34.725 239.497C35.1961 239.571 35.6773 239.54 36.1356 239.406C36.5939 239.273 37.0184 239.041 37.38 238.725C37.7412 238.411 38.031 238.02 38.2297 237.581C38.4283 237.141 38.5311 236.663 38.5308 236.18V224.644C36.731 224.169 35.0743 223.25 33.7077 221.969C32.3411 220.687 31.3068 219.083 30.6966 217.297Z" fill="#E6E6E6"/>
<path d="M67.2415 224.505C67.0363 224.01 66.7286 223.566 66.3393 223.202C65.9501 222.839 65.4883 222.565 64.9855 222.399L51.732 218.022C50.9583 219.871 49.7201 221.481 48.1415 222.691C46.5628 223.901 44.6991 224.668 42.737 224.915V238.951C42.7372 239.49 42.8521 240.022 43.0737 240.511C43.2952 241.001 43.6182 241.436 44.0206 241.786C44.423 242.137 44.8952 242.395 45.4049 242.543C45.9146 242.691 46.4497 242.725 46.9736 242.643C51.2797 241.966 55.362 240.245 58.8747 237.624C62.3875 235.004 65.2273 231.562 67.1538 227.589C67.3854 227.112 67.5132 226.589 67.5283 226.057C67.5434 225.525 67.4456 224.996 67.2415 224.505Z" fill="#3F3D56"/>
<path d="M63.9487 192.312C63.5714 191.937 63.1189 191.648 62.622 191.467C62.1252 191.285 61.5956 191.214 61.0694 191.259C60.5433 191.304 60.0328 191.464 59.5729 191.728C59.113 191.992 58.7143 192.353 58.4041 192.787L49.343 205.463C50.3854 206.525 51.2118 207.786 51.7749 209.172C52.3381 210.559 52.627 212.045 52.6251 213.545C52.6251 213.824 52.6119 214.1 52.5926 214.374L66.9958 219.131C67.5051 219.298 68.0441 219.35 68.5753 219.284C69.1065 219.217 69.617 219.034 70.0714 218.747C70.5258 218.46 70.9131 218.075 71.2064 217.62C71.4996 217.165 71.6918 216.651 71.7694 216.112C71.9716 214.744 72.0731 213.362 72.073 211.978C72.0842 208.314 71.3708 204.685 69.9751 201.307C68.5795 197.929 66.5301 194.87 63.9487 192.312Z" fill="#111111"/>
<path d="M41.3501 202.085C43.2899 202.083 45.1972 202.592 46.8857 203.563L52.4162 195.826C52.6981 195.432 52.8926 194.98 52.9861 194.502C53.0797 194.025 53.0701 193.532 52.9581 193.058C52.8496 192.593 52.6432 192.158 52.3532 191.783C52.0631 191.407 51.6963 191.1 51.2781 190.882C47.8636 189.117 44.088 188.194 40.2573 188.189C36.4266 188.183 32.6484 189.094 29.2288 190.849C28.7976 191.07 28.4188 191.384 28.1187 191.769C27.8187 192.154 27.6045 192.6 27.491 193.077C27.3791 193.548 27.3691 194.037 27.4618 194.512C27.5546 194.987 27.7477 195.435 28.0279 195.826L34.3018 204.603C36.2994 202.971 38.7867 202.082 41.3501 202.085Z" fill="#E6E6E6"/>
</g>
<defs>
<clipPath id="clip0_69_1171">
<rect width="131.701" height="107.646" fill="white" transform="translate(14.0934 183.689)"/>
</clipPath>
</defs>
</svg>
