<svg width="183" height="369" viewBox="0 0 183 369" fill="none" xmlns="http://www.w3.org/2000/svg">
<path d="M183 87.6882H180.984V32.1462C180.984 23.6205 177.615 15.444 171.619 9.41542C165.623 3.38684 157.491 1.06309e-05 149.011 2.0402e-10H31.9728C27.7741 -1.50392e-05 23.6165 0.831457 19.7374 2.44694C15.8583 4.06242 12.3336 6.43028 9.36465 9.41532C6.39571 12.4004 4.04061 15.9441 2.43381 19.8443C0.827024 23.7444 1.49582e-05 27.9246 0 32.1461V336.854C-5.98326e-06 341.075 0.826973 345.255 2.43375 349.156C4.04052 353.056 6.39562 356.6 9.36455 359.585C12.3335 362.57 15.8581 364.937 19.7372 366.553C23.6163 368.168 27.7739 369 31.9726 369H149.011C153.209 369 157.367 368.169 161.246 366.553C165.125 364.938 168.65 362.57 171.619 359.585C174.588 356.6 176.943 353.056 178.55 349.156C180.156 345.256 180.983 341.075 180.983 336.854V127.224H183V87.6882Z" fill="#3F3D56"/>
<path d="M150.493 8.02173H135.166C135.871 9.7569 136.14 11.6395 135.949 13.5037C135.759 15.3678 135.115 17.1564 134.074 18.7117C133.033 20.2671 131.627 21.5415 129.98 22.4227C128.333 23.304 126.495 23.765 124.629 23.7651H57.3594C55.4931 23.765 53.6554 23.304 52.0084 22.4227C50.3613 21.5415 48.9553 20.2671 47.9143 18.7117C46.8732 17.1564 46.2291 15.3678 46.0387 13.5037C45.8483 11.6395 46.1173 9.7569 46.8222 8.02173H32.5064C26.1531 8.02172 20.06 10.5558 15.5676 15.0666C11.0751 19.5774 8.55128 25.6954 8.55127 32.0746V336.925C8.55127 340.084 9.17089 343.212 10.3747 346.13C11.5786 349.048 13.3431 351.7 15.5675 353.933C17.792 356.167 20.4328 357.939 23.3391 359.147C26.2455 360.356 29.3605 360.978 32.5063 360.978H150.493C156.847 360.978 162.94 358.444 167.432 353.933C171.925 349.423 174.448 343.305 174.448 336.925V32.0747C174.448 28.916 173.829 25.7883 172.625 22.87C171.421 19.9518 169.657 17.3002 167.432 15.0667C165.208 12.8331 162.567 11.0614 159.661 9.85265C156.754 8.64387 153.639 8.02173 150.493 8.02173ZM147.918 149.444C147.913 151.095 147.258 152.677 146.096 153.844C144.933 155.011 143.358 155.669 141.713 155.674H111.723C110.079 155.669 108.504 155.011 107.341 153.844C106.179 152.677 105.523 151.095 105.518 149.444V147.886C105.523 146.235 106.179 144.654 107.341 143.486C108.504 142.319 110.079 141.661 111.723 141.656H141.713C143.358 141.661 144.933 142.319 146.096 143.486C147.258 144.654 147.913 146.235 147.918 147.886V149.444ZM151.279 121.927C151.274 123.578 150.619 125.16 149.457 126.327C148.294 127.495 146.719 128.152 145.074 128.157H37.5236C35.8794 128.152 34.304 127.495 33.1414 126.327C31.9788 125.16 31.3235 123.578 31.3187 121.927V120.37C31.3235 118.719 31.9788 117.137 33.1414 115.969C34.304 114.802 35.8794 114.144 37.5236 114.139H145.074C146.719 114.144 148.294 114.802 149.457 115.969C150.619 117.137 151.274 118.719 151.279 120.37V121.927ZM151.279 94.4103C151.274 96.0612 150.619 97.6431 149.457 98.8104C148.294 99.9778 146.719 100.636 145.074 100.641H37.5236C35.8794 100.636 34.304 99.9778 33.1414 98.8104C31.9788 97.6431 31.3235 96.0612 31.3187 94.4103V92.8528C31.3235 91.2019 31.9788 89.62 33.1414 88.4527C34.304 87.2853 35.8794 86.6274 37.5236 86.6225H145.074C146.719 86.6274 148.294 87.2853 149.457 88.4527C150.619 89.62 151.274 91.2019 151.279 92.8528V94.4103ZM151.279 66.8935C151.274 68.5444 150.619 70.1263 149.457 71.2936C148.294 72.461 146.719 73.1189 145.074 73.1238H37.5236C35.8794 73.1189 34.304 72.461 33.1414 71.2936C31.9788 70.1263 31.3235 68.5444 31.3187 66.8935V65.336C31.3235 63.6851 31.9788 62.1033 33.1414 60.9359C34.304 59.7686 35.8794 59.1106 37.5236 59.1058H145.074C146.719 59.1106 148.294 59.7686 149.457 60.9359C150.619 62.1033 151.274 63.6851 151.279 65.336V66.8935Z" fill="white"/>
<path d="M73.7327 125.293C75.7272 125.293 77.344 123.668 77.344 121.664C77.344 119.659 75.7272 118.034 73.7327 118.034C71.7383 118.034 70.1215 119.659 70.1215 121.664C70.1215 123.668 71.7383 125.293 73.7327 125.293Z" fill="white"/>
<path d="M85.5986 125.293C87.593 125.293 89.2098 123.668 89.2098 121.664C89.2098 119.659 87.593 118.034 85.5986 118.034C83.6041 118.034 81.9873 119.659 81.9873 121.664C81.9873 123.668 83.6041 125.293 85.5986 125.293Z" fill="white"/>
<path d="M97.4638 125.293C99.4583 125.293 101.075 123.668 101.075 121.664C101.075 119.659 99.4583 118.034 97.4638 118.034C95.4694 118.034 93.8525 119.659 93.8525 121.664C93.8525 123.668 95.4694 125.293 97.4638 125.293Z" fill="white"/>
<path d="M109.329 125.293C111.324 125.293 112.941 123.668 112.941 121.664C112.941 119.659 111.324 118.034 109.329 118.034C107.335 118.034 105.718 119.659 105.718 121.664C105.718 123.668 107.335 125.293 109.329 125.293Z" fill="white"/>
<path d="M115.35 152.223C117.344 152.223 118.961 150.598 118.961 148.594C118.961 146.589 117.344 144.964 115.35 144.964C113.355 144.964 111.738 146.589 111.738 148.594C111.738 150.598 113.355 152.223 115.35 152.223Z" fill="white"/>
<path d="M127.215 152.223C129.21 152.223 130.827 150.598 130.827 148.594C130.827 146.589 129.21 144.964 127.215 144.964C125.221 144.964 123.604 146.589 123.604 148.594C123.604 150.598 125.221 152.223 127.215 152.223Z" fill="white"/>
<path d="M139.081 152.223C141.075 152.223 142.692 150.598 142.692 148.594C142.692 146.589 141.075 144.964 139.081 144.964C137.086 144.964 135.469 146.589 135.469 148.594C135.469 150.598 137.086 152.223 139.081 152.223Z" fill="white"/>
<g clip-path="url(#clip0_45_699)">
<path d="M124.114 334.728L121.254 334.728L119.893 323.638H124.114L124.114 334.728Z" fill="#FFB6B6"/>
<path d="M124.037 333.789L120.984 332.54L120.896 332.504L119.211 333.789C118.259 333.789 117.346 334.169 116.673 334.846C116 335.523 115.622 336.44 115.622 337.397V337.514H124.842V333.789H124.037Z" fill="#2F2E41"/>
<path d="M149.953 330.99L147.394 332.272L141.255 322.957L145.033 321.064L149.953 330.99Z" fill="#FFB6B6"/>
<path d="M150.19 329.822L149.535 330.149L149.468 330.183L146.186 330.437L146.087 330.444L145.148 332.349C144.726 332.56 144.35 332.853 144.041 333.211C143.732 333.568 143.495 333.984 143.346 334.433C143.196 334.882 143.137 335.357 143.17 335.83C143.203 336.302 143.328 336.764 143.539 337.188L143.59 337.291L151.842 333.158L150.19 329.822Z" fill="#2F2E41"/>
<path d="M122.174 275.121L137.943 275.676L138.053 275.515C138.053 275.515 139.398 278.671 139.398 281.375C139.398 282.275 138.776 288.156 139.092 289.269C139.131 289.407 138.861 289.746 138.95 290.391C139.007 290.809 139.325 290.487 139.398 291.067C139.45 291.483 138.891 291.713 138.95 292.194C139.013 292.72 139.783 294.423 139.852 295.008C140.589 301.234 141.571 310.254 141.571 310.254C141.571 310.254 145.513 320.871 146.347 321.043C147.747 321.333 148.692 323.892 147.917 324.424C147.547 324.678 142.773 326.382 142.773 326.382C142.511 326.43 141.69 326.016 142.213 325.038C142.309 324.857 141.735 325.316 141.64 325.1C141.538 324.871 141.737 323.958 141.621 323.704C140.578 321.418 138.976 318.249 137.458 316.623C135.215 314.219 133.794 311.158 133.404 307.885L129.922 288.474L128.728 293.917L127.741 294.899L128.012 297.186L127.965 299.406L125.499 308.647C125.499 308.647 125.129 325.905 125.723 326.453C126.045 326.749 127.41 330.405 124.826 330.735L120.132 330.371C120.132 330.371 119.5 329.031 119.816 328.554C120.132 328.077 120.113 328.207 119.728 327.427C119.342 326.646 119.5 325.324 119.5 325.324C118.885 319.109 118.642 312.863 118.773 306.619C119.009 296.363 120.435 284.581 120.435 284.341C120.447 284.096 120.402 283.851 120.303 283.626V282.978L120.909 280.685L122.174 275.121Z" fill="#2F2E41"/>
<path d="M144.365 277.06C147.804 277.06 150.592 274.256 150.592 270.798C150.592 267.34 147.804 264.537 144.365 264.537C140.925 264.537 138.137 267.34 138.137 270.798C138.137 274.256 140.925 277.06 144.365 277.06Z" fill="#111111"/>
<path d="M143.515 274.057C143.408 274.057 143.302 274.032 143.205 273.984C143.109 273.935 143.026 273.865 142.961 273.778L141.262 271.501C141.207 271.428 141.168 271.344 141.145 271.256C141.123 271.167 141.118 271.075 141.13 270.984C141.143 270.894 141.174 270.807 141.22 270.728C141.267 270.649 141.328 270.581 141.401 270.526C141.473 270.471 141.556 270.431 141.644 270.408C141.732 270.386 141.824 270.381 141.914 270.394C142.004 270.406 142.091 270.437 142.169 270.484C142.248 270.53 142.316 270.592 142.37 270.665L143.482 272.155L146.337 267.85C146.387 267.774 146.452 267.708 146.528 267.657C146.603 267.606 146.688 267.571 146.777 267.553C146.867 267.535 146.959 267.535 147.048 267.552C147.137 267.57 147.222 267.605 147.298 267.656C147.374 267.707 147.439 267.772 147.489 267.848C147.54 267.924 147.575 268.01 147.593 268.099C147.611 268.189 147.611 268.281 147.593 268.371C147.575 268.461 147.54 268.546 147.49 268.622L144.092 273.747C144.03 273.84 143.948 273.916 143.851 273.97C143.754 274.024 143.645 274.054 143.534 274.057C143.528 274.057 143.522 274.057 143.515 274.057Z" fill="white"/>
<path d="M147.444 277.418C147.505 277.161 147.509 276.895 147.456 276.637C147.404 276.38 147.295 276.137 147.139 275.925C146.983 275.714 146.782 275.54 146.552 275.415C146.321 275.29 146.066 275.218 145.805 275.203L142.614 264.272L140.455 266.791L143.89 277.025C143.894 277.468 144.059 277.895 144.355 278.223C144.65 278.552 145.055 278.76 145.494 278.809C145.932 278.857 146.372 278.742 146.732 278.486C147.091 278.229 147.345 277.849 147.444 277.418Z" fill="#FFB8B8"/>
<path d="M145.193 272.085L144.778 270.557L145.253 269.644L145.218 269.538L145.074 269.128L144.33 268.528L144.597 267.764L143.655 265.075L143.424 264.609L138.019 253.698L136.723 251.081L136.423 250.608L135.488 249.134L134.21 247.121C134.007 246.799 133.742 246.522 133.432 246.304C133.121 246.086 132.77 245.932 132.399 245.852C132.279 245.826 132.158 245.807 132.036 245.796L131.948 245.789C131.73 245.777 131.511 245.79 131.296 245.827H131.292C130.912 245.894 130.55 246.038 130.229 246.251C129.976 246.416 129.751 246.62 129.561 246.855C129.125 247.399 128.898 248.084 128.922 248.782L128.962 249.882L129.003 250.883L130.899 254.331L131.023 254.557L131.025 254.563L136.86 265.179L138.62 268.38L138.887 268.866L140.07 269.655L139.754 270.449L139.846 271.684L140.853 272.448L142.312 273.938L142.371 274.059L142.819 273.832L142.861 273.809L142.962 273.78L144.35 273.358L145.193 273.104L145.22 273.095L145.451 273.036L145.193 272.085Z" fill="#E6E6E6"/>
<path d="M169.182 321.706C168.76 321.166 168.186 320.765 167.534 320.556C166.883 320.346 166.184 320.338 165.528 320.532L165.385 320.574L164.098 325.625C163.905 324.873 163.493 323.173 163.233 321.51L163.21 321.372L163.082 321.429C161.737 322.026 160.472 322.793 159.318 323.71C157.274 325.358 155.611 327.435 154.445 329.795C153.28 332.156 152.639 334.743 152.568 337.377L152.566 337.474L152.564 337.535L152.734 337.474L156.391 336.16C158.009 336.303 159.64 336.082 161.162 335.511C162.685 334.94 164.062 334.034 165.192 332.86C166.669 331.294 167.683 329.279 168.662 327.329C168.949 326.761 169.243 326.175 169.543 325.612C169.878 324.999 170.023 324.299 169.959 323.603C169.894 322.907 169.624 322.246 169.182 321.706Z" fill="#D8D8D8"/>
<path d="M75.3536 237.86H74.9053V220.496H107.334V220.947H75.3536V237.86Z" fill="#3F3D56"/>
<path d="M112.307 225.672C115.747 225.672 118.535 222.868 118.535 219.41C118.535 215.952 115.747 213.149 112.307 213.149C108.868 213.149 106.08 215.952 106.08 219.41C106.08 222.868 108.868 225.672 112.307 225.672Z" fill="#111111"/>
<path d="M111.458 222.669C111.35 222.669 111.244 222.644 111.148 222.595C111.052 222.547 110.968 222.477 110.903 222.39L109.204 220.113C109.15 220.04 109.11 219.956 109.088 219.868C109.065 219.779 109.06 219.687 109.073 219.596C109.086 219.506 109.116 219.419 109.163 219.34C109.209 219.261 109.27 219.193 109.343 219.138C109.416 219.083 109.499 219.043 109.587 219.02C109.675 218.998 109.767 218.993 109.857 219.005C109.947 219.018 110.033 219.049 110.112 219.096C110.19 219.142 110.258 219.204 110.313 219.277L111.424 220.767L114.279 216.462C114.33 216.385 114.395 216.32 114.47 216.269C114.546 216.218 114.631 216.183 114.72 216.165C114.809 216.147 114.901 216.146 114.99 216.164C115.08 216.182 115.165 216.217 115.24 216.268C115.316 216.319 115.381 216.384 115.432 216.46C115.482 216.536 115.518 216.621 115.535 216.711C115.553 216.801 115.553 216.893 115.536 216.983C115.518 217.073 115.483 217.158 115.432 217.234L112.034 222.359C111.973 222.452 111.89 222.528 111.793 222.582C111.696 222.636 111.588 222.666 111.477 222.669C111.47 222.669 111.464 222.669 111.458 222.669Z" fill="white"/>
<path d="M53.3841 280.018H52.9358V297.382H85.3648V296.931H53.3841V280.018Z" fill="#3F3D56"/>
<path d="M90.3378 303.655C93.7772 303.655 96.5655 300.852 96.5655 297.394C96.5655 293.936 93.7772 291.133 90.3378 291.133C86.8983 291.133 84.1101 293.936 84.1101 297.394C84.1101 300.852 86.8983 303.655 90.3378 303.655Z" fill="#111111"/>
<path d="M89.4881 300.653C89.3806 300.653 89.2745 300.627 89.1783 300.579C89.0821 300.531 88.9985 300.46 88.934 300.374L87.235 298.096C87.1804 298.023 87.1407 297.94 87.1181 297.851C87.0955 297.763 87.0905 297.67 87.1034 297.58C87.1163 297.489 87.1468 297.402 87.1931 297.324C87.2395 297.245 87.3008 297.176 87.3736 297.121C87.4463 297.066 87.5291 297.026 87.6173 297.004C87.7054 296.981 87.7971 296.976 87.8872 296.989C87.9772 297.002 88.0638 297.033 88.1421 297.079C88.2204 297.126 88.2888 297.187 88.3434 297.261L89.4549 298.751L92.3098 294.445C92.3602 294.369 92.4251 294.304 92.5007 294.253C92.5763 294.202 92.6611 294.166 92.7504 294.148C92.8396 294.13 92.9315 294.13 93.0208 294.148C93.1101 294.165 93.1951 294.201 93.2708 294.251C93.3465 294.302 93.4116 294.368 93.4622 294.444C93.5129 294.52 93.5481 294.605 93.5659 294.695C93.5837 294.784 93.5838 294.877 93.566 294.967C93.5483 295.056 93.5131 295.142 93.4626 295.218L90.0646 300.342C90.0031 300.435 89.9204 300.512 89.8235 300.565C89.7265 300.619 89.6181 300.649 89.5074 300.652C89.501 300.652 89.4945 300.653 89.4881 300.653Z" fill="white"/>
<path d="M139.622 280.656C139.629 281.131 139.553 281.603 139.398 282.051L139.364 282.045C135.383 282.737 131.831 282.85 130.188 280.393C128.044 277.649 125.096 277.68 121.807 278.885L121.417 278.461L120.753 277.742L121.363 277.048L120.753 275.709L121.262 274.057L121.912 273.938L121.737 272.515L121.464 271.684L122.266 270.798L122.948 268.587L122.457 263.96C121.785 257.617 123.087 251.221 126.183 245.654L128.046 243.972L128.819 243.274L129.857 241.326L130.953 241.455L133.921 241.8L134.022 242.043L134.751 243.81L138.589 247.955L138.416 249.704L138.34 250.475L138.284 251.029L138.019 253.698L136.941 264.6L136.86 265.179L135.993 271.447C137.403 272.817 138.649 275.457 139.248 277.868C139.315 278.136 139.124 278.409 139.174 278.671C139.243 279.04 139.546 279.392 139.58 279.737C139.611 280.042 139.625 280.349 139.622 280.656Z" fill="#E6E6E6"/>
<path d="M132.021 240.629C134.868 240.629 137.176 238.308 137.176 235.445C137.176 232.583 134.868 230.262 132.021 230.262C129.173 230.262 126.865 232.583 126.865 235.445C126.865 238.308 129.173 240.629 132.021 240.629Z" fill="#FFB6B6"/>
<path d="M138.235 234.031C137.93 233.075 137.093 232.266 136.1 232.16C136.175 231.525 136.075 230.881 135.812 230.299C135.549 229.717 135.131 229.218 134.606 228.858C134.08 228.498 133.466 228.289 132.831 228.255C132.195 228.222 131.563 228.364 131.002 228.666C130.883 228.522 130.729 228.412 130.555 228.345C130.381 228.279 130.193 228.258 130.009 228.287C129.641 228.348 129.294 228.5 129 228.731C128.269 229.268 127.698 229.994 127.345 230.832C126.993 231.67 126.873 232.588 126.998 233.489C126.996 233.032 127.197 233.916 127.775 233.995C128.256 234.092 128.714 234.282 129.124 234.554C129.533 234.826 129.99 235.019 130.47 235.121C130.954 235.193 131.079 237.145 130.733 238.403C130.668 238.641 130.634 238.961 130.853 239.075C131.122 239.215 131.394 238.863 131.695 238.829C131.83 238.826 131.961 238.877 132.059 238.97C132.158 239.063 132.217 239.19 132.224 239.326C132.224 239.462 132.192 239.596 132.13 239.717C132.069 239.838 131.979 239.943 131.869 240.022C131.648 240.178 131.403 240.298 131.144 240.376L131.23 240.5C131.307 240.641 131.429 240.752 131.578 240.813C131.726 240.874 131.891 240.881 132.044 240.833C132.389 241.251 135.941 240.09 136.114 239.327C136.858 238.653 137.476 237.851 137.939 236.958C138.401 236.055 138.507 235.01 138.235 234.031Z" fill="#2F2E41"/>
<path d="M142.404 249.817C142.332 250.421 141.77 250.872 141.178 250.998C140.877 251.056 140.568 251.061 140.265 251.014C139.97 250.969 139.678 250.904 139.391 250.818C139.037 250.716 138.687 250.602 138.34 250.475C137.349 250.119 136.395 249.67 135.488 249.134C134.803 248.732 134.147 248.281 133.524 247.786C133.202 247.529 132.889 247.261 132.585 246.981L132.964 247.162C132.625 246.704 132.287 246.247 131.948 245.789C131.621 245.347 131.295 244.906 130.969 244.464C130.949 244.437 130.933 244.419 130.926 244.41V244.408C130.776 244.207 130.628 244.006 130.48 243.806C130.034 243.204 129.595 242.32 130.108 241.777C130.217 241.671 130.35 241.593 130.496 241.549C130.641 241.505 130.795 241.496 130.944 241.523C131.105 241.544 131.261 241.594 131.404 241.671C131.796 241.927 132.129 242.264 132.379 242.661C132.729 242.149 133.408 241.96 134.022 242.043C134.056 242.045 134.087 242.05 134.119 242.054C134.757 242.165 135.033 241.818 135.587 242.158C135.845 242.316 136.002 243.127 136.259 243.285C136.405 243.375 136.945 243.51 137.093 243.603C137.385 243.783 137.311 244.457 137.605 244.637C137.822 244.77 138.405 244.412 138.622 244.545C138.851 244.687 139.169 245.625 139.398 245.764C139.853 246.046 140.218 245.532 140.674 245.812C141.259 246.175 141.882 246.578 142.128 247.223C142.346 247.791 142.066 248.568 141.525 248.73C141.783 248.761 142.019 248.892 142.183 249.095C142.347 249.298 142.427 249.556 142.404 249.817Z" fill="#E6E6E6"/>
<path opacity="0.2" d="M138.34 250.475L138.284 251.029C137.648 250.968 137.023 250.826 136.423 250.608C135.633 250.341 134.948 249.829 134.466 249.145C134.161 248.685 133.843 248.228 133.524 247.786C132.995 247.047 132.471 246.357 132.036 245.796C131.505 245.117 131.106 244.626 130.969 244.464C130.949 244.437 130.933 244.419 130.926 244.41L130.919 244.403L130.926 244.407C133.59 247.797 136.106 249.751 138.416 249.704C138.416 249.704 138.687 250.601 138.34 250.475Z" fill="black"/>
<path d="M113.964 223.332C113.898 223.587 113.889 223.853 113.937 224.112C113.984 224.371 114.088 224.616 114.24 224.83C114.392 225.044 114.589 225.222 114.817 225.351C115.045 225.481 115.299 225.558 115.56 225.578L118.54 236.569L120.747 234.093L117.51 223.793C117.515 223.35 117.357 222.921 117.068 222.587C116.779 222.252 116.378 222.036 115.941 221.979C115.504 221.922 115.061 222.029 114.696 222.278C114.332 222.527 114.071 222.902 113.964 223.332Z" fill="#FFB8B8"/>
<path d="M131.46 251.437L131.44 250.437L129.561 246.855L129.491 246.724L129.487 246.718L128.046 243.972L121.09 230.714L120.343 230.438L120.38 229.361L120.343 228.184L119.445 227.579L119.063 226.85L118.52 227.005H118.518L118.502 227.01L116.13 227.679H116.128L115.635 227.959L115.187 229.311L115.089 229.951L115.187 231.114L116.308 231.34L115.936 232.532L117.063 235.962C118.473 241.957 120.399 247.132 123.723 250.087L123.997 250.538L126.16 254.097C126.455 254.584 126.887 254.972 127.402 255.212C127.916 255.452 128.489 255.534 129.05 255.447H129.052C129.433 255.387 129.797 255.251 130.124 255.046C130.425 254.859 130.688 254.616 130.899 254.331C131.286 253.815 131.49 253.185 131.48 252.539L131.46 251.437Z" fill="#E6E6E6"/>
<path d="M170.761 337.99L109.841 338.059C109.77 338.059 109.702 338.031 109.652 337.98C109.602 337.93 109.574 337.862 109.574 337.791C109.574 337.719 109.602 337.651 109.652 337.601C109.702 337.551 109.77 337.522 109.841 337.522L170.761 337.453C170.832 337.453 170.9 337.481 170.95 337.532C171 337.582 171.028 337.65 171.028 337.721C171.028 337.793 171 337.861 170.95 337.911C170.9 337.961 170.832 337.99 170.761 337.99Z" fill="#CACACA"/>
<path d="M35.2803 247.793C35.2766 244.405 36.564 241.144 38.878 238.681L30.9368 227.692C30.6099 227.24 30.1899 226.863 29.7052 226.588C29.2205 226.313 28.6826 226.147 28.1281 226.1C27.5737 226.053 27.0156 226.127 26.4921 226.316C25.9685 226.505 25.4916 226.806 25.094 227.197C22.3737 229.863 20.214 233.052 18.7433 236.573C17.2726 240.095 16.5208 243.878 16.5326 247.697C16.5326 249.14 16.6396 250.58 16.8526 252.006C16.9361 252.57 17.141 253.109 17.453 253.585C17.7649 254.061 18.1764 254.463 18.6588 254.763C19.1357 255.06 19.6713 255.248 20.2281 255.316C20.785 255.383 21.3497 255.327 21.883 255.152L35.595 250.673C35.3863 249.727 35.2808 248.762 35.2803 247.793Z" fill="#F2F2F2"/>
<path d="M36.0095 252.147L21.754 256.804C21.2264 256.975 20.7417 257.259 20.3326 257.635C19.9235 258.011 19.5996 258.472 19.3829 258.985C19.1663 259.498 19.0618 260.052 19.0767 260.609C19.0916 261.166 19.2254 261.714 19.4692 262.215C21.4993 266.355 24.4919 269.943 28.1936 272.675C31.8954 275.406 36.1972 277.201 40.735 277.907C41.2877 277.992 41.8522 277.956 42.3898 277.802C42.9274 277.647 43.4254 277.378 43.8496 277.011C44.2732 276.646 44.6132 276.193 44.8463 275.683C45.0793 275.173 45.1998 274.619 45.1996 274.058V260.671C43.0883 260.121 41.1448 259.055 39.5416 257.567C37.9385 256.08 36.7252 254.219 36.0095 252.147Z" fill="#E6E6E6"/>
<path d="M78.8795 260.511C78.6388 259.936 78.2779 259.42 77.8212 258.999C77.3645 258.577 76.8229 258.259 76.2331 258.066L60.6856 252.987C59.778 255.133 58.3256 257.002 56.4737 258.406C54.6218 259.81 52.4355 260.7 50.1338 260.987V277.273C50.1341 277.898 50.2688 278.516 50.5287 279.084C50.7886 279.652 51.1676 280.156 51.6396 280.563C52.1116 280.97 52.6656 281.27 53.2635 281.441C53.8614 281.613 54.4891 281.653 55.1037 281.558C60.1551 280.772 64.9439 278.774 69.0646 275.734C73.1854 272.693 76.5167 268.699 78.7766 264.089C79.0483 263.535 79.1982 262.929 79.2159 262.311C79.2337 261.694 79.1189 261.08 78.8795 260.511Z" fill="#3F3D56"/>
<path d="M75.0167 223.155C74.5741 222.719 74.0433 222.384 73.4604 222.174C72.8775 221.963 72.2563 221.881 71.6391 221.933C71.0219 221.985 70.4231 222.171 69.8835 222.477C69.344 222.783 68.8764 223.202 68.5125 223.706L57.8831 238.415C59.1059 239.647 60.0753 241.11 60.7359 242.719C61.3965 244.328 61.7354 246.052 61.7333 247.793C61.7333 248.117 61.7177 248.437 61.6951 248.755L78.5912 254.274C79.1886 254.468 79.8209 254.529 80.444 254.452C81.0671 254.375 81.6661 254.162 82.1991 253.829C82.7322 253.495 83.1865 253.049 83.5305 252.521C83.8745 251.993 84.0999 251.396 84.191 250.772C84.4281 249.184 84.5472 247.581 84.5472 245.975C84.5603 241.723 83.7233 237.512 82.0862 233.592C80.449 229.672 78.0449 226.123 75.0167 223.155Z" fill="#111111"/>
<path d="M48.5068 234.495C50.7824 234.492 53.0198 235.083 55.0005 236.209L61.4882 227.232C61.819 226.774 62.0471 226.251 62.1568 225.696C62.2665 225.142 62.2553 224.57 62.1239 224.02C61.9966 223.481 61.7545 222.976 61.4143 222.54C61.0741 222.104 60.6438 221.747 60.1531 221.495C56.1476 219.447 51.7186 218.376 47.2249 218.37C42.7312 218.363 38.2991 219.421 34.2877 221.457C33.7818 221.714 33.3375 222.078 32.9854 222.524C32.6334 222.971 32.3822 223.489 32.249 224.042C32.1178 224.588 32.1061 225.156 32.2149 225.707C32.3236 226.258 32.5502 226.778 32.8789 227.232L40.2387 237.417C42.582 235.522 45.4998 234.491 48.5068 234.495Z" fill="#E6E6E6"/>
</g>
<defs>
<clipPath id="clip0_45_699">
<rect width="154.495" height="124.91" fill="white" transform="translate(16.5326 213.149)"/>
</clipPath>
</defs>
</svg>
